<svg version="1.1" id="OBJECTS" xmlns="http://www.w3.org/2000/svg" x="0" y="0" viewBox="0 0 130.4 236.4" xml:space="preserve">
  <style>
    .st1{fill:#0a344c}.st2{fill:#ffe1bd}.st3{fill:#f7d7b5}.st6{fill:#ff9852}.st8{fill:#eda694}.st12{fill:#ad3880}.st14{fill:#fff}
  </style>
  <path d="M68.9 179.7s9.7 4.2 22.9-3.8c30.2-18.4 38.5-41.9 38.5-41.9s-20.6-2.9-39.9 6.1c-19.2 8.9-22.8 27.7-21.5 39.6z" fill="#ea833d"/>
  <path class="st1" d="M123.5 217.6s2.2 2.7 3.4 5.4c1.2 2.6 4 9.2 3.5 11.8-.5 2.6-3.9 1.9-6.9-2.1-3-4.1-4.8-7.4-5.3-9.9s1.9-5.1 1.9-5.1M94.1 202s-1.6.1-3.1 1.8.2 3.5 1.5 5.8 4.7 7.3 6.1 8.3c1.5 1 1-2.2.8-4.5-.2-2-1.5-7.7-1.5-7.7"/>
  <path class="st2" d="M124.6 218.4c-.1-.2-.1-.4-.2-.5.1.2.2.4.2.5zM119.6 155.3c-.8 6.1-20.5 45.6-21.6 50.4-1.1-.1-2-.5-2.5-1-.6-.5-.9-1.1-1.1-1.6-.2-.6-.3-1.1-.3-1.1 1.6-.9 2-2.6 2.2-3.4v-.2-.3c0-.4.1-.9.1-1.3.8-11.8 2.8-27.4 4.8-32.6 1.3-3.3 5.6-9.2 3.1-12.6-1.9-2.7-8.1-8.3-12.2-11.8-2.1-1.8-3.6-3.1-3.6-3.1l18.4-5.6c.9.8 1.7 1.5 2.5 2.2 3.9 3.5 6.4 6.4 8 8.9 3.8 5.7 2.7 9.1 2.2 13.1z"/>
  <path class="st3" d="M108.9 153.5c-.7 3.9-4.4 5.8-7.3 15.5-2.9 9.7-3.4 23.9-3.7 26.2-.3 2.3-.4 5.9-3.6 7.7-.2-.6-.3-1.1-.3-1.1 1.6-.9 2-2.6 2.2-3.4v-.2-.3c0-.4.1-.9.1-1.3.8-11.8 2.8-27.4 4.8-32.6 1.3-3.3 5.6-9.2 3.1-12.6-1.9-2.7-8.1-8.3-12.2-11.8 1.5-1.2 14.3-6.3 14.9-6.3.2 0 1.3-.1 2.5-.1 3.9 3.5 6.4 6.4 8 8.9 0 0-7.4 1.3-12.5 3.5.2.1 4.7 4 4 7.9z"/>
  <linearGradient id="SVGID_1_" gradientUnits="userSpaceOnUse" x1="107.918" y1="123.91" x2="97.609" y2="183.727">
    <stop offset="0" stop-color="#fff"/>
    <stop offset="1"/>
  </linearGradient>
  <path d="M119.6 155.3c-.8 6.1-20.5 45.6-21.6 50.4-1.1-.1-2-.5-2.5-1-.6-.5-.9-1.1-1.1-1.6-.2-.6-.3-1.1-.3-1.1 1.6-.9 2-2.6 2.2-3.4v-.2-.3c0-.4.1-.9.1-1.3.8-11.8 2.8-27.4 4.8-32.6 1.3-3.3 5.6-9.2 3.1-12.6-1.9-2.7-8.1-8.3-12.2-11.8-2.1-1.8-3.6-3.1-3.6-3.1l18.4-5.6c.9.8 1.7 1.5 2.5 2.2 3.9 3.5 6.4 6.4 8 8.9 3.8 5.7 2.7 9.1 2.2 13.1z" opacity=".28" fill="url(#SVGID_1_)"/>
  <path class="st2" d="M123.9 223.7s-.6 0-1.4-.3c-.7-.3-1.6-.8-2.2-1.9-.3-.5-.5-.9-.7-1.3l-.5-1c0-.1-.1-.1-.1-.2-.2-.2-.3-.5-.5-.8 0-.1-.1-.1-.1-.1-.1-.1-.1-.2-.2-.3-3.3-5.2-6.3-10.9-11.8-17.2-5.5-6.2-10-10.7-14.9-25.9-3.9-12.1-17.4-21-22.7-24.1-1.4-.8-2.2-1.2-2.2-1.2l3.6-1.1 20.1-6.1s1.2 2.3 4.1 7.8c1.8 3.5 4.3 8.3 7.6 14.6 8.4 16.3 22.9 54.2 23.2 57.4 0 .9-.4 1.6-1.3 1.7z"/>
  <path class="st3" d="M122.6 223.4c-.7-.3-1.6-.8-2.2-1.9-.3-.5-.5-.9-.7-1.3l-.5-1c0-.1-.1-.1-.1-.2-.2-.2-.3-.5-.5-.8 0-.1-.1-.1-.1-.1-.1-.1-.1-.2-.2-.3-3.3-5.2-6.3-10.9-11.8-17.2-5.5-6.2-10-10.7-14.9-25.9-3.9-12.1-17.4-21-22.7-24.1.4-.7.9-1.5 1.4-2.4l20.1-6.1s1.2 2.3 4.1 7.8c-2.2 1.2-6.6 3.8-10.1 7.5 0 0 5.5 6.9 7.3 10.5 1.7 3.7 3.2 9.9 5.4 15.7 2.2 5.8 10.2 15.8 12.7 18.6 2.5 2.7 9.1 14.9 9.1 14.9s2.2 5.5 3.7 6.3z"/>
  <path d="M81.1 11s8-.8 3.7 21.2c-2.5 12.9-18.4 23.7-25 26-6.5 2.3-18.1.7-18.1.7L41 37.7S58.7 21 59.7 19.5C60.8 18 81.1 11 81.1 11z" fill="#072533"/>
  <path class="st1" d="M50.6 131.1s.9 5.4 6.7 3.9c38.4-9.9 42.4-32.4 42.4-32.4l-32.2 5.8s-8.8 4.5-9.2 4.6c-.3.1-6.7 7.8-6.7 7.8l-1 10.3z"/>
  <path class="st6" d="M130.4 133.9c-.7 1-1.5 1.8-2.3 2.5l-.3.3c-3.1 2.4-6.9 3.1-12.2 4.2-.3.1-.5.1-.8.2-3.2.7-7 1.5-11.5 2.9-.3.1-.5.2-.8.3-2.7.9-5.8 2-9.1 3.5-1.1.5-2.2 1-3.2 1.5-.2.1-.5.2-.7.3-4.5 2.4-8 5-10.8 7.6l-.6.6c-3.3 3.3-5.4 6.7-6.8 9.8-.1.3-.3.6-.4.9-2.6 6.3-2 11.2-2 11.2-16.6-11.1-15.9-53.3-15.4-63.6.1-1.4.1-2.3.1-2.3l38.9-9c14.5 22.1 37.9 29.1 37.9 29.1z"/>
  <g opacity=".3">
    <path class="st8" d="M128 136.4c-.6-.2-1.4-.5-2.2-.8-.9-.4-1.9-.9-3.1-1.4-.6-.3-1.2-.5-1.7-.8-.6-.3-1.2-.6-1.8-1-.6-.3-1.3-.7-1.9-1-.6-.3-1.3-.8-1.9-1.1-.7-.4-1.3-.8-2-1.2-.7-.4-1.3-.9-2-1.3s-1.4-.9-2-1.3c-.7-.5-1.3-1-2-1.4-1.4-.9-2.6-2-3.8-3.1-1.2-1.1-2.3-2.2-3.4-3.3-1-1.2-2-2.2-2.9-3.3-.9-1.1-1.8-2-2.6-3-.8-.9-1.5-1.8-2.1-2.6-.6-.8-1.2-1.5-1.6-2-.4-.6-.8-1-1-1.3-.2-.3-.3-.5-.3-.5h-.1s.4.7 1.2 2c.4.6.9 1.3 1.5 2.2.6.8 1.3 1.7 2 2.7l1.2 1.5c.4.5.9 1 1.4 1.5.2.3.5.5.7.8l.8.8c.5.5 1.1 1 1.6 1.6 1.1 1 2.3 2.1 3.5 3.2.6.5 1.2 1.1 1.8 1.6.6.6 1.2 1.1 1.9 1.6.6.5 1.3 1.1 1.9 1.6.7.5 1.3 1 2 1.4.7.5 1.3 1 2 1.4.7.4 1.4.8 2 1.2.7.4 1.3.8 2 1.2.7.3 1.3.7 2 1 .6.3 1.3.6 1.9.9.6.3 1.2.5 1.8.7 1.2.4 2.2.9 3.2 1.2.8.2 1.5.4 2.1.6l-.1-.3zM115.5 140.9c-.3.1-.5.1-.8.2-.6-.3-1.3-.7-2-1.2-1-.6-2-1.3-3.1-2.1-.5-.4-1.1-.8-1.6-1.2-.5-.4-1.1-.9-1.6-1.4-1.1-.9-2.2-2-3.3-3-1.1-1-2.1-2.2-3.2-3.3-2-2.3-4.1-4.6-6-6.8-.9-1.1-1.9-2.1-2.7-3.2-.8-1-1.5-2.1-2.2-3-.7-1-1.2-1.8-1.7-2.6s-.9-1.5-1.2-2.1c-.7-1.2-1-1.9-1-1.9h.1s.4.6 1.2 1.7c.4.6.9 1.2 1.4 2 .5.8 1.2 1.6 1.8 2.5.7.9 1.4 1.9 2.2 3 .4.5.8 1.1 1.2 1.6.4.6.8 1.1 1.3 1.7.8 1.2 1.8 2.3 2.8 3.5 1 1.1 2.1 2.2 3.2 3.3.6.5 1.1 1 1.7 1.6.6.5 1.1 1.1 1.7 1.5 1.1 1 2.2 2 3.3 2.9 1.1.9 2.2 1.8 3.2 2.6.5.4 1 .8 1.5 1.1.5.4 1 .7 1.4 1 .8.6 1.6 1.1 2.4 1.6zM103.2 144c-.3.1-.5.2-.8.3-.9-.7-1.8-1.6-2.8-2.5-1-.9-2-2-3-3.1s-1.9-2.3-2.9-3.5c-1-1.2-1.8-2.5-2.8-3.8-.9-1.3-1.7-2.6-2.6-3.9-.8-1.3-1.7-2.6-2.5-3.8-.8-1.2-1.6-2.4-2.3-3.6-.7-1.2-1.3-2.3-1.8-3.4s-1-2-1.4-2.9c-.4-.9-.7-1.7-1-2.3-.5-1.3-.7-2-.7-2h.1s.3.7 1 1.9l1.1 2.2c.4.8.9 1.8 1.5 2.9 1.1 2.1 2.4 4.5 3.8 7.1.7 1.3 1.5 2.6 2.3 3.9.9 1.3 1.8 2.6 2.8 3.8l1.5 1.8 1.5 1.8c1 1.2 2 2.4 3 3.4 1 1.1 1.9 2.1 2.9 3.1l1.4 1.4 1.3 1.3c.2-.3.3-.2.4-.1zM90.2 149.2c-.2.1-.5.2-.7.3-.2-.2-.3-.4-.5-.6-.4-.5-.8-1.1-1.2-1.7-.8-1.2-1.6-2.4-2.4-3.7-.8-1.3-1.6-2.7-2.3-4.2-.4-.7-.7-1.4-1.1-2.2-.3-.7-.7-1.5-1-2.3-.7-1.5-1.3-3-1.9-4.5-.6-1.5-1.2-3-1.8-4.4-.5-1.4-1.1-2.8-1.5-4.2-.4-1.3-.8-2.6-1.1-3.8-.3-1.2-.6-2.3-.8-3.3-.2-1-.4-1.8-.5-2.5-.2-1.4-.3-2.2-.3-2.2h.1s.2.8.5 2.2c.2.7.4 1.5.6 2.5.3 1 .5 2 .9 3.2.3 1.2.7 2.4 1.1 3.8.4 1.3.8 2.8 1.3 4.2.5 1.4 1 3 1.6 4.4.3.7.6 1.5 1 2.2.3.7.7 1.5 1.1 2.2.4.7.7 1.5 1.1 2.2l1.2 2.1c.7 1.4 1.6 2.8 2.4 4.1.4.6.8 1.3 1.2 1.9l1.2 1.8c.4.6.7 1.2 1.1 1.7.3.3.5.5.7.8zM78.7 157.1l-.6.6-1.2-2.1c-.2-.4-.4-.7-.6-1.1-.2-.4-.4-.7-.5-1.1-.4-.7-.7-1.5-1.1-2.3-.7-1.6-1.3-3.3-1.9-5-.3-.9-.6-1.7-.9-2.6-.3-.9-.5-1.8-.8-2.7-.5-1.8-.9-3.6-1.4-5.4-.5-1.8-.8-3.5-1.2-5.2-.4-1.7-.8-3.3-1-4.9-.3-1.6-.5-3.1-.6-4.5-.2-1.4-.3-2.7-.3-3.8-.1-1.1-.1-2.1-.1-2.9v-2.6h.1s.1.9.3 2.5c.2 1.6.4 3.9.8 6.7.2 1.4.4 2.9.6 4.4.2 1.6.5 3.2.7 5 .3 1.7.6 3.5 1.1 5.2.2.9.5 1.8.7 2.7.3.9.6 1.8.8 2.7.6 1.7 1.2 3.5 1.9 5.2.7 1.7 1.3 3.4 2.1 4.9.4.8.7 1.6 1.1 2.3.4.7.7 1.5 1.1 2.2.2.6.6 1.2.9 1.8zM71.3 167.5c-.2.4-.3.7-.4.9-.4-.6-.7-1.3-1.1-2-.4-.8-.9-1.7-1.3-2.5-.4-.9-.9-1.7-1.3-2.7-.4-.9-.8-1.9-1.2-2.8-.4-1-.8-1.9-1.2-2.9-.3-1-.7-2-1-3l-.5-1.5-.4-1.6c-.6-2.1-1.2-4.1-1.6-6.2-.2-1-.5-2-.7-3.1l-.6-3c-.2-1-.4-2-.5-2.9-.2-1-.3-1.9-.4-2.8-.2-1.8-.4-3.6-.4-5.2 0-.8-.1-1.6-.1-2.3v-2.1c0-1.3.1-2.4.2-3.4.1-.9.2-1.7.2-2.2.1-.5.1-.8.1-.8h.1s-.1 1.1-.1 2.9v3.4c0 .7 0 1.4.1 2.1 0 .7.1 1.5.1 2.3 0 .8.1 1.6.2 2.5.1.9.1 1.7.2 2.7.3 1.8.3 3.8.7 5.7.2 1 .3 2 .5 3s.4 2 .7 3.1c.3 1 .5 2.1.8 3.1.3 1 .7 2 1 3.1l.5 1.5.6 1.5c.4 1 .8 2 1.1 3 .3 1 .8 1.9 1.2 2.9.4.9.8 1.9 1.2 2.8.4.9.9 1.8 1.3 2.7.4.9.9 1.7 1.3 2.5.2.4.4.8.7 1.3z"/>
  </g>
  <path class="st6" d="M68.9 179.7c-16.6-11.1-15.9-53.3-15.4-63.6 1.7.1 2.9.2 2.9.2s-1 15.3 2.5 23.2c3.5 7.9 1 12.8 3.5 19 1.8 4.5 6.5 7.8 8.9 9.2-3 6.6-2.4 12-2.4 12z"/>
  <path class="st2" d="M54.3 66s-20.4 8.2-24.6 13c7.1 1.3.7 5.2 4.9 4.3 4.2-.8 12.8-6.6 12.8-6.6M82.7 63.2s12.1-3.9 17.7-7.4c5.6-3.5 15.6-13.7 18.5-16.9l3.2.8s-.5.4-.8.8c-1.8 2.7-9.6 14.9-15 19.6-3.5 3.1-10.2 7.5-18.5 9"/>
  <path d="M60.5 62.6s1.4-.4 3.4 0 5.1.8 6 .5c.9-.3 3.3-.6 4.2-.1.9.6-3.2 3.6-3.2 3.6s-11.1.7-11.1.5c-.1-.1.7-4.5.7-4.5z" fill="#20264c"/>
  <path class="st2" d="M70.7 56.1c-.1 1.5 0 3.5.6 5.9.9 1.5 3.5 1.6 4.9 2.1 1 .4 1.4 1 .6 2.3-2 3.4-10.5 5-15.4 2.9s-5-5.4-1.7-5.9c3.2-.5 4-3.4 4-3.4.3-2.5.5-5.3.3-7.9-.7-.5-1-.8-1-.8-4.3-3.8-7.5-10.5-4.7-16.3 2.9-5.6 18.7-12.5 20.3-9 3.3 7.1 2.9 29.7-1.7 31.2-1.7.5-3.9-.1-6.2-1.1z"/>
  <path d="M76.3 64.2c-.4.4-1.1.5-2 .3-3.8-1-3.9-2.7-4.3-5.6-.4-2.7-3-5-3.4-5.2 1.6 1.1 4.2 2.5 4.2 2.5-.1 1.5 0 3.5.6 5.9.9 1.5 3.4 1.5 4.9 2.1z" fill="#efcba5"/>
  <path d="M99.6 102.6c0 .2-.1 5-11.6 8.3-5.3 1.5-13.1 1.4-20.2 2.9h-.2c-8.6 1.7-16.2 5.7-17.1 17.3 0 0-.7-19.5 3.9-53.3 0 0-4.9 2-8.1 6.1 0 0-6.4-5.3-7.8-12.6 0 0 8-3.8 12.3-5.8 4.3-2 9.7-3 9.7-3s6.4 4.9 13.6.5c0 0 .2.2.7.3 2.1.4 5-.1 8.6-1.3 3.6-1.2 9-3.1 9-3.1s2.4 4.1 3.7 8.6c.3 1.1.5 2.2.6 3.2 0 0-5.8 2.4-12.4 1.8.6 2.1 1.1 4.6 1.5 7.7 1 6.8 3.2 14.7 9.2 19.5 2.7 2.3 4.6 2.9 4.6 2.9z" fill="#d33791"/>
  <path class="st12" d="M67.7 113.9c-8.6 1.7-16.2 5.7-17.1 17.3 0 0-.7-19.5 3.9-53.3 0 0 .4-.3 2.1-.7 0 0-1.7 16.9.8 22.9s1.2 11.3 1.5 12.8c.2 1.2-.2 2.8 8.8 1z"/>
  <path class="st2" d="M31.7 77.2s-3.6 2.3-2.7 4.6c.6 1.7 18 6.7 29.4 6.4 0 0 .4-2.2.4-3.8-6-.8-11.4-1.5-16.6-4-9.3-4.4-10.5-3.2-10.5-3.2z"/>
  <path class="st2" d="M58.8 84.5s.5 0 1.8-.2 2.5-1.1 3.8-1.2c1.3-.2 5 .7 6.3 1.3 1.3.6 0 .9-1.8.6-1.8-.4-3.2-.4-4.1 0-.9.4-3 4.1-6.5 3.4-3.5-.9.5-3.9.5-3.9z"/>
  <path d="M62.5 88.8s-.3.4 0 .7c.3.4 3.1-.5 3.1-.5l-.9-1.6-2.2 1.4z" fill="#e8a87e"/>
  <path class="st2" d="M65.6 83.9s2.2 4.4 0 5.2c0 0-4.1.2-6.7-.9-2.7-1 4.1-3.2 4.1-3.2l2.6-1.1z"/>
  <path class="st1" d="M82.9 4.9c.7 4.4 2.5 21.6-13.4 30.3-2.4 1.3-4.2 3.5-5 6.1-1.4 4.5-4.3 11.5-10.2 15.2-9.2 5.7-17.6.3-22.5.7-4.9.4-10.7 6.5-19.9 3.7C2.7 58-2.1 52.7.9 47c3-5.7 10.3-4.1 15.3-5.7 5-1.6 2.6-14.8 13.5-21.2 10.9-6.4 18.6 3.1 27.2.1s4.5-9.4 14.4-18C74.6-.6 79.7-1 82 2.5c.5.7.8 1.5.9 2.4z"/>
  <path class="st1" d="M69.1 5.9s-.5 1.1-1.6 2.9c-.5.9-1.3 1.9-2.2 3.1-.9 1.1-2 2.4-3.4 3.5s-3.2 2.2-5.3 2.5c-2 .3-4.3.1-6.4-.6-2.1-.6-4.3-1.5-6.5-2-1.1-.3-2.3-.4-3.5-.5-1.2-.1-2.3-.1-3.5 0-2.3.2-4.6.7-6.7 1.8-2 1.1-3.7 2.6-5 4.3-1.3 1.7-2.3 3.6-3 5.5-.7 1.9-1.2 3.7-1.8 5.4-.6 1.7-1.1 3.2-1.7 4.6-.6 1.3-1.3 2.4-2.2 3.1-.8.7-1.6 1-2.1 1.1-.5.1-.8.2-.8.2v-.1s.3-.1.8-.2c.5-.2 1.3-.5 2-1.2s1.4-1.8 1.9-3.1 1-2.9 1.5-4.6c.5-1.7 1-3.6 1.7-5.5s1.7-3.9 3.1-5.7c1.4-1.8 3.2-3.4 5.4-4.4 2.2-1 4.6-1.5 6.9-1.6 2.4-.1 4.8.1 7 .7 2.3.5 4.4 1.4 6.6 1.9 2.2.5 4.2.6 6.2.3 1.9-.3 3.6-1.3 5-2.3 1.4-1.1 2.5-2.2 3.4-3.3.9-1.1 1.7-2.1 2.3-2.9 1.3-2 1.9-3 1.9-2.9z"/>
  <path class="st2" d="M64.6 44s0-2.5-2.8-1.8-1.3 6 1.1 5.9"/>
  <path class="st12" d="M96.7 70.8s-5.8 2.4-12.4 1.8c0 0-.5-1-1.1-2.1.1 0 .9.4 2.8.2s7-2.7 10.1-3.1c.2 1 .4 2.1.6 3.2z"/>
  <path class="st1" d="M78.8 40.8c.1.3.5.5.8.4s.5-.5.4-.8c-.1-.3-.5-.5-.8-.4-.4.1-.6.4-.4.8z"/>
  <path class="st14" d="M79.4 40.5c0 .1.2.2.3.1.1 0 .2-.2.1-.3 0-.1-.2-.2-.3-.1-.1.1-.2.2-.1.3z"/>
  <path class="st1" d="M71.7 41.9c.1.3.5.5.8.4.3-.1.5-.5.4-.8s-.5-.5-.8-.4c-.3.1-.5.5-.4.8z"/>
  <path class="st14" d="M72.3 41.5c0 .1.2.2.3.1.1 0 .2-.2.1-.3 0-.1-.2-.2-.3-.1-.1.1-.1.2-.1.3z"/>
  <path class="st1" d="M80.6 38.7s-.1-.2-.4-.4c-.2-.1-.4-.2-.6-.2-.2-.1-.5 0-.7 0-.2.1-.5.2-.7.3-.2.1-.3.3-.5.4-.1.1-.2.3-.2.4l-.1.1s.1 0 .1-.1c.1-.1.2-.2.3-.2.1-.1.3-.2.5-.3.2-.1.4-.2.6-.2.9-.2 1.7.2 1.7.2zM73.5 39.7s-.1-.2-.4-.4c-.2-.1-.4-.2-.6-.2-.2-.1-.5 0-.7 0-.2.1-.5.2-.7.3-.2.1-.3.3-.5.4-.1.1-.2.3-.2.4l-.1.1s.1 0 .1-.1c.1-.1.2-.1.3-.2.1-.1.3-.2.5-.3.2-.1.4-.2.6-.2.9-.2 1.7.2 1.7.2z"/>
  <path d="M77.2 40.5s0 .1-.1.3c0 .2-.1.5-.1.8v.6c0 .2.1.4.2.6.1.4.3.8.5 1.2.2.4.4.8.5 1.2.1.2.1.4.2.5 0 .1 0 .2-.1.3-.2.2-.4.4-.6.5-.2.1-.3.2-.3.2s.1 0 .3-.1c.2-.1.5-.2.7-.4.1-.1.2-.3.2-.5s-.1-.4-.1-.6c-.1-.4-.3-.8-.5-1.2-.2-.4-.4-.8-.5-1.2-.2-.4-.2-.8-.3-1.1-.1-.7 0-1.1 0-1.1s0-.1 0 0c0-.1 0 0 0 0z" fill="#dbb491"/>
  <path d="M78.5 49.8s-3.8.6-5.8-.5c-.1 0 3.1 3.6 5.8.5z" fill="#d15924"/>
  <path class="st2" d="M125.9 30.2s2.5-2.2 2.9-2.4c.5-.3.5.2.2.9s-1.9 1.7-1.9 1.7l-1.2-.2z"/>
  <path class="st2" d="M123.7 31.3s3.5-2.9 3.9-3.1c.5-.3.5.2.2.9s-2.5 2.6-2.5 2.6l-1.6-.4z"/>
  <g>
    <path class="st2" d="M120.5 40.5c.7-.5 1.6-.8 2.4-1 .4-.1 1.9-.1 3.1-.6.7-.3 2.2-1 2.5-1.3.5-.4 1.8-.8 1.5-1.2-.4-.6-1.7-.1-2.5.2-.3.1-.6.2-.9.2-.3 0-.6-.1-.8-.4-.1-.2-.1-.4-.1-.7.1-1.3.6-2.6 1.3-3.7.7-1.1 1.6-2.2 2.4-3.2.1-.2.4-.3.5-.7.1-.2.1-.7-.1-.7s-1.5 1.1-1.7 1.3c-.7.7-.6.6-1.3 1.2-.1.1-.2.2-.4.2-.1 0-.2-.1-.4-.1s-.4.1-.6.2c-.3.2-.7.4-1 .7-.4.3-.7-.1-1.1.3-.4.4-1 1.6-1.5 2.1-.3.3-.7.7-.9 1.1-.3.5-.5 1-.8 1.6-.6 1.5-1.4 2.9-2.4 4.1"/>
  </g>
  <path class="st1" d="M81.3 21.2s0 .4-.1 1.2c-.1.7-.3 1.8-.8 3-.2.6-.5 1.2-.9 1.9-.4.6-.8 1.3-1.3 1.9-.9 1.3-1.9 2.6-3.1 3.9-1.2 1.2-2.5 2.3-3.9 3.1-1.4.8-2.7 1.4-3.8 2-.6.3-1 .5-1.4.8-.4.3-.7.6-.9.9-.2.3-.3.5-.4.7-.1.2-.1.3-.1.3h-.1s0-.1.1-.3c0-.2.2-.5.3-.8.2-.3.5-.7.9-1.1.4-.4.9-.7 1.4-1 1.1-.6 2.4-1.3 3.7-2.1.7-.4 1.3-.8 2-1.3s1.3-1 1.9-1.5c1.3-1 2.4-2.3 3.2-3.6.7-1.4 1.3-2.7 1.8-3.8 1-2.6 1.4-4.2 1.5-4.2z"/>
</svg>
