<svg version="1.1" id="OBJECTS" xmlns="http://www.w3.org/2000/svg" x="0" y="0" viewBox="0 0 120.5 274.1" xml:space="preserve">
  <style>
    .st0{fill:#2c373f}.st1{fill:#ffc5b1}.st2{fill:#f97a5d}.st4{fill:#6e5395}.st6{fill:#f4b19f}
  </style>
  <path class="st0" d="M35.4 65.1c-2.1-5.2-2.9-11-6-15.7-4.5-6.7-13.2-10-16.8-17.2-1.6-3.1-2-6.6-2.1-10 0-6.8 2-14 7.2-18.3 6-5 15.1-4.9 22.1-1.6 7.1 3.3 12.4 9.4 17 15.7 4.6 6.3 8.6 13.1 13.9 18.8 4 4.2 8.6 7.9 11.6 12.8 8.2 13.6-.2 30.8-14.7 35.7-12.5 4.3-27.8-9.3-32.2-20.2z"/>
  <path class="st1" d="M17.4 160.9c1.3 1-.1.3 1.7 1.5-.4 4.6-4.6 7.4-4.6 7.4s-.2 7.3-1.5 7.1c-1.4-.1-.5-7-.5-7s-2.8 7.1-3.9 6.7c-1.2-.5 3.1-8.7 3.1-8.7s-6 8.2-6.8 6.9c-.8-1.3 4.4-9.2 4.4-9.2s-6.5 6.8-7.2 5.7c-.7-1.1 7.7-10.5 7.7-10.5-3.9 0-3.6-2.7-3.6-2.7l9.5.6c-.1 0 1.1 1.7 1.7 2.2zM108.4 24c1.6.3.4-.3 2.5.4 3.5-3.2 3-8.1 3-8.1s5.8-4.7 4.9-5.6c-1-.9-6 4-6 4s4.1-6.5 3-7.1c-1.1-.6-5.2 7.7-5.2 7.7s3-9.6 1.4-9.4c-1.6.2-4.8 9-4.8 9s1.5-9 .2-8.9c-1.4.1-3.5 12-3.5 12-3.2-2.6-5.4-.9-5.4-.9l7 6.8c-.1.1 2.1 0 2.9.1zM68.5 63.6c2.9-.5 11.9 5.4 9.6 17.2-.2 1-1.5 3.2-1.8 4.1-.4 1.1 2.8 5.3 2.8 5.3l-8.2 2.6c-.4-2.5.2-6.1-2.4-7.2-1-.4-2.1-.7-3-1.2-2.5-1.4-3.9-4.4-4.9-6.9-.8-1.8-1.4-3.8-1.3-5.8 0-4.9 4.5-7.3 9.2-8.1z"/>
  <path class="st1" d="M84.9 96c0-4.3-1.4-5.9-5.8-5.9-4.5 0-10.4 1.6-10.4 5.9 0 4.3 3.2 9.6 7.6 9.6 4.5 0 8.6-5.3 8.6-9.6z"/>
  <path class="st1" d="M81.4 88.1s13.9-14.3 16.7-28.4c2.8-14 7.5-36.8 7.5-36.8l5.3 1.4s2.5 31.1 0 35.9c-2.5 4.8-16.7 37.9-16.4 46.3L81.4 88.1zM56.6 95s-4.7.8-11.9 17.2-29.5 47-29.5 47l3.6 3.3s21.7-16.1 25.8-25.9c4.2-9.8 9.4-22 11.9-21.4 2.6.5 13.2-14.1.1-20.2z"/>
  <path class="st2" d="M93.8 108.8l6.5-17.9s-1-8.4-13.8-11.4L79.3 90l14.5 18.8zM58.8 93.7s-7.6.6-13.8 14.2c0 0 6.8 9.4 11.8 9.7 0 0 18.4-15.8 2-23.9z"/>
  <path class="st1" d="M79.8 254.8s-11 22.5-12.3 18.3c-1.3-4.2-.9-14.2-.2-15.6.7-1.4 5.2-7.7 5.2-7.7l7.3 5z"/>
  <path d="M80.6 147.8l10.1-3.9s29.9 52.8 29.8 67.5c-.1 14.7-41.1 44-41.1 44l-6.9-5.7s19.4-28.5 26.2-35.9c3.4-3.7-20.8-21.8-24.5-39.3-3.7-17.4 6.4-26.7 6.4-26.7z" fill="#5d4484"/>
  <path class="st1" d="M20 243S-.6 258.2.2 253.9c.9-4.3 6-13 7.3-13.9 1.3-1 8.3-4.6 8.3-4.6L20 243z"/>
  <path class="st4" d="M53.2 166.5L83 149.3s1.2 60-6 73-57.7 21.2-57.7 21.2l-3.4-8.1s31.2-18.6 40.7-22.2c9.7-3.7-3.4-46.7-3.4-46.7z"/>
  <path class="st4" d="M70.9 137.4s-21.9 7.8-17.8 29.1c4.2 21.3 11.2 25.3 11.2 25.3L77 171.2l12.6-27-12.6-1.6-6.1-5.2z"/>
  <path class="st2" d="M81.4 88.1s16.2 9.1 16.2 29.5c0 0-2.1 23.3-5.4 28.4 0 0-5.4 1.3-12.2 0-7.1-1.4-13.9-6.4-13.9-6.4L60.6 111l-4.3-16.7 2.3-.8 12.2-1.3s-1.7 18.2 11.8 9.1c2.9-1.9-3.6-11.4-3.6-11.4l2.4-1.8z"/>
  <path class="st0" d="M19.1 34.2c.1-.1.8.6 2 2s2.8 3.5 4.4 6.3c1.6 2.8 3.2 6.4 4.4 10.6 1.2 4.1 2 8.8 3.8 13.3.9 2.2 2.1 4.3 3.5 6.1 1.4 1.8 2.9 3.4 4.5 4.8 3.2 2.7 6.6 4.6 9.6 5.6 3 1.1 5.6 1.6 7.3 1.8 1.8.2 2.8.2 2.8.3 0 .1-1 .2-2.8.2-1.8 0-4.5-.4-7.6-1.4-3.1-1-6.7-2.8-10.1-5.6-1.7-1.4-3.3-3.1-4.7-4.9-1.4-1.9-2.7-4.1-3.6-6.4-1.9-4.7-2.6-9.4-3.7-13.5s-2.5-7.6-4-10.5c-1.5-2.8-2.9-5-4-6.5-1.3-1.4-1.9-2.1-1.8-2.2z"/>
  <g>
    <path class="st0" d="M60.7 11.1c.2 0 .5 3.3 2.4 8.2.9 2.5 2.3 5.3 4.3 8.1 1 1.4 2.1 2.8 3.4 4.2 1.3 1.4 2.7 2.8 4 4.4 2.7 3.2 4.5 6.7 6.2 9.8 1.7 3.1 3.1 6 3.8 8.7.7 2.6.8 4.9.5 6.4-.2 1.5-.6 2.3-.7 2.3-.1 0 .1-.8.1-2.3.1-1.5-.1-3.6-.9-6.1-.8-2.5-2.2-5.3-3.9-8.3-1.8-3-3.6-6.4-6.2-9.5-1.3-1.5-2.7-3-4-4.4-1.3-1.4-2.5-2.9-3.5-4.4-2-3-3.3-5.9-4.2-8.5-.9-2.6-1.2-4.7-1.4-6.2 0-1.6.1-2.4.1-2.4z"/>
  </g>
  <g>
    <path class="st2" d="M71.1 76.5c0-.1.5-.2 1.1-.8.1-.1.2-.3.2-.5 0-.1-.1-.4-.2-.5-.2-.1-.3-.2-.6-.2-.2 0-.5.1-.9.2-.8.1-1.5-.4-1.9-.8-.4-.4-.8-.8-1-1.2-.5-.7-.7-1.3-.6-1.3.1 0 .4.4 1 1 .3.3.6.7 1.1 1 .4.3.9.6 1.4.6.3 0 .6-.2 1-.2s.8.1 1.1.4c.3.3.4.6.4 1-.1.4-.3.6-.5.8-.9.7-1.6.6-1.6.5z"/>
  </g>
  <path d="M75.1 77.1l-6.5 2.4c0-.1 5.5 4.8 6.5-2.4z" fill="#fff"/>
  <path class="st6" d="M68 76.7c.3.5-.1 1.2-.9 1.6s-1.5.3-1.8-.2c-.3-.5.1-1.2.9-1.6.7-.4 1.5-.3 1.8.2zM75.7 72.7c.2.5-.2 1.2-1 1.5-.8.3-1.6.2-1.8-.4-.2-.5.2-1.2 1-1.5.8-.3 1.6-.1 1.8.4z"/>
  <path d="M68.8 85.9s2.2.4 5-.3c0 0-1.4 1.3-3.6 1.6 0 .1-.5-.9-1.4-1.3z" fill="#eda091"/>
  <path class="st0" d="M71 71.2c.2.2.3.6.1.8-.2.2-.6.3-.8.1-.2-.2-.3-.6-.1-.8.2-.2.6-.3.8-.1zM66.7 73.8c.2.2.3.6.1.8-.2.2-.6.3-.8.1-.2-.2-.3-.6-.1-.8.2-.3.5-.3.8-.1z"/>
  <g>
    <path class="st0" d="M71.1 68.8c-.1.2-.6.2-1.2.4s-1.1.5-1.2.3c-.2-.1.2-.8 1-1 .8-.2 1.4.2 1.4.3z"/>
  </g>
  <g>
    <path class="st0" d="M63.5 73.4c-.1-.1.1-.7.6-1.4.6-.6 1.3-.8 1.4-.7.1.2-.4.6-.9 1.1-.4.7-.9 1.1-1.1 1z"/>
  </g>
  <path class="st1" d="M61.1 78.2S59 76.4 58 78s4.5 2.4 4.5 2.4l-1.4-2.2z"/>
  <path class="st4" d="M10.9 238.1s-3 1.3-3.8 2.1-7.9 13.1-7 14.7 8.1-3.7 8.1-3.7-6 1 2.7-13.1M69.3 254.4s-2.1 2.3-2.5 3.4c-.3 1.1-.9 15.3.6 16.3s5.7-6.9 5.7-6.9-5 3.8-3.8-12.8"/>
</svg>
