<svg xmlns="http://www.w3.org/2000/svg" viewBox="0 0 1411.26 914.41"><defs><style>.cls-1{fill:#305399;}.cls-2{fill:#091d44;}.cls-3{fill:#e6f1f7;}.cls-4{fill:#13317c;}.cls-5{fill:#a6e5cc;}.cls-6{fill:#004fa7;}.cls-16,.cls-6{opacity:0.2;}.cls-7{fill:#ffe1bd;}.cls-8{fill:#58224f;}.cls-9{fill:#ffb00b;}.cls-10{fill:#51bbe5;}.cls-11{fill:#40b4e2;}.cls-12{fill:#0a344c;}.cls-13{fill:#0062b9;}.cls-14{fill:#9fcee2;}.cls-15{fill:#b4e4ff;}.cls-17{fill:#e4e9ff;}.cls-18{fill:#69cdff;}.cls-19{fill:#d15924;}.cls-20{fill:#ef703f;}.cls-21{fill:#fff;}.cls-22{fill:#dbb491;}</style></defs><title>3edwedw</title><g id="Layer_2" data-name="Layer 2"><g id="Слой_4" data-name="Слой 4"><path class="cls-1" d="M740.28,714.45c13,4.92,27,6.23,40.8,6.71,18.27.62,39.23-1.44,50.07-16.16,9.64-13.11,14.94-39.54,1.6-52.2s-36.15-11.3-53-14.61c-24.23-4.75-40.78-34.44-64.7-42.28-40.68-13.32-23.35,51.59-17.12,68.83C705.42,685.49,718.81,706.28,740.28,714.45Z"/></g><g id="Слой_5" data-name="Слой 5"><path class="cls-2" d="M664.41,853.3c0,7.93-88,14.35-196.62,14.35-92.77,0-170.54-4.69-191.22-11,.87-2.51,1.84-5,2.89-7.48C303.78,843.26,378.9,839,467.79,839,576.38,839,664.41,845.38,664.41,853.3Z"/><path class="cls-2" d="M1208.12,835.09c-11,7.09-87.17,12.57-179.49,12.57-99.88,0-180.85-6.42-180.85-14.34s81-14.35,180.85-14.35c90.42,0,165.33,5.26,178.73,12.13C1207.62,832.45,1207.87,833.78,1208.12,835.09Z"/><ellipse class="cls-2" cx="779.76" cy="830.35" rx="107.95" ry="14.82"/><path class="cls-1" d="M1072.54,718.92c-6.46,4.91-10.4,14.39-1.28,16.37,3,.64,6.21,0,9.32.2,12.06.62,15.9,12.16,10.15,19.42s-16.8,11.84-25,18S1052.51,789,1060.58,795c3.43,2.55,8.61,3.83,11.84,6.5,5.5,4.53,3.36,11.75-2.42,16.26s-14.22,7-22.37,9.23q-9.72,2.71-19.5,5.34h-174c7.59-13.58,12.21-25,9.43-40.32-3.24-17.91-12.23-35.2-13.61-53.24a67.63,67.63,0,0,1,7.8-36.5c3.43-6.6,8.35-13.3,17-17.16s21.88-3.71,27.73,2c7.63,7.38,1.31,21,13.83,24.21,10.82,2.73,19.56-6.65,23-14.19,15.4-34.21,28-71.18,65.61-96.52,5.05-3.39,10.78-6.63,17.68-7.74,11.23-1.8,23,2.77,28.95,9.34s7.09,14.68,6.5,22.44a62.78,62.78,0,0,1-7.7,25.26c-6.29,11.51-16.34,22.42-17.85,34.6,17.12,5.66,37-11.6,54.79-7,11.58,3,14,14,8.89,21.7S1080.91,712.56,1072.54,718.92Z"/><polygon class="cls-3" points="1136.16 832.32 1141.06 823.9 1136.96 832.32 1136.16 832.32"/><path class="cls-4" d="M1247.45,680.13q-.75,15.9-2.18,30l-.15,1.37q-1.89,18.24-4.8,33.69c-.08.45-.16.89-.26,1.34a272.92,272.92,0,0,1-10.6,40.3c-.16.44-.3.89-.47,1.31-5.49,15.3-11.87,27.55-18.73,37.31-.3.44-.61.87-.92,1.3-1.4,2-2.83,3.79-4.27,5.54H1106c-8.16-22.18-.83-43.89,14-63.67.36-.49.73-1,1.11-1.45A180.18,180.18,0,0,1,1145.34,742l1.2-1.05a318.89,318.89,0,0,1,31.22-23.5l1.25-.84c10.75-7.12,21.4-13.43,31-18.73.47-.27.94-.53,1.4-.77,17.08-9.42,30.54-15.57,34.74-17.45l1.38-.61c0,.37,0,.72,0,1.09Z"/><path class="cls-1" d="M1247.45,680.13c-2.29,2.7-11.35,13.55-24.84,31.33-.37.46-.72.95-1.09,1.42-7,9.28-15.2,20.36-24.22,33.08l-1,1.35c-7.37,10.43-15.28,21.93-23.57,34.43l-.84,1.27c-8,12-16.25,24.94-24.73,38.7-.27.43-.54.85-.81,1.29q-2.82,4.59-5.68,9.31h-1.58q8-13.23,15.8-25.52l1.1-1.73c9.24-14.53,18.15-28,26.55-40.29l1.16-1.7c8.58-12.52,16.6-23.79,23.87-33.73.5-.7,1-1.37,1.5-2.06,19.65-26.81,33.47-43.46,37-47.64l1.38-.61c0,.37,0,.72,0,1.09Z"/><path class="cls-5" d="M1131.09,832.31c-3.57-20.54-11.09-63.67-11.09-63.67.36-.49.73-1,1.11-1.45l11.35,65.12Z"/><path class="cls-1" d="M1156.31,806.83l-1.34.2c0-.24-9.63-65-9.63-65l1.2-1.05L1156,805Z"/><path class="cls-1" d="M1183.94,764.83l-1.33.13-4.85-47.53,1.25-.84,4.75,46.47Z"/><path class="cls-1" d="M1209,729.56l-1.34-.1c0-.12,2.37-31.6,2.37-31.6.47-.27.94-.53,1.4-.77l-2.26,30.19Z"/><path class="cls-1" d="M1196.35,747.31H1196l0-1.34,1.35,0,43-.75c-.08.45-.16.89-.26,1.34Z"/><path class="cls-1" d="M1221.52,712.88l-.35,0-.06-1.35,1.5-.09,22.66-1.31-.15,1.37Z"/><path class="cls-1" d="M1171.94,783l-.42,0,.12-1.33,1.14.1,56.68,5.11c-.16.44-.3.89-.47,1.31Z"/><path class="cls-1" d="M1146.4,823l-.41,0,.08-1.35,1.14.08,63,3.76c-.3.44-.61.87-.92,1.3Z"/><path class="cls-1" d="M1160,738.27c-.36,7.9-1,16.87-2,26.28,0,.36-.09.73-.12,1.1-1,9.32-2.44,19.06-4.39,28.6-.08.4-.16.78-.24,1.17a187.24,187.24,0,0,1-7,25.41c-.15.44-.31.87-.47,1.3-1.32,3.55-2.76,7-4.33,10.18H1085c-.07-9.74,2.73-20.43,7.29-31.33.17-.42.35-.84.54-1.27a188.85,188.85,0,0,1,12.25-23.35c.2-.34.41-.67.62-1,5.1-8.3,10.72-16.38,16.35-23.88l.66-.89c5.7-7.55,11.39-14.52,16.52-20.52.25-.31.5-.6.75-.88,9.17-10.69,16.48-18.24,18.76-20.57l.75-.76c0,.27,0,.78,0,.78l-1.87,5.18,2.19-5.06.56-.53s0,.37,0,1.07c.07,3.26.24,13.76-.37,27.83C1160.06,737.5,1160,737.88,1160,738.27Z"/><path class="cls-4" d="M1193.48,677.81a.18.18,0,0,0,.07,0,11,11,0,0,1,1.42-.88l.06,0c.54-.29,1.11-.55,1.66-.78l.06,0c.55-.23,1.08-.42,1.56-.59l.06,0c.85-.29,1.48-.47,1.68-.53h.07l0,0-.27.22.28-.2h.05l0,.05c-.1.19-.43.76-.91,1.51l0,.06c-.27.42-.59.89-1,1.37l0,.06c-.35.48-.74,1-1.15,1.42l0,.06a11.78,11.78,0,0,1-1.19,1.16l-.07,0c-1.17,1-2.41,1.46-3.53.86h0l0,0a1.22,1.22,0,0,1-.19-.12,0,0,0,0,1,0,0l0,0c0-.07-.05-.14-.08-.22l0-.05h0C1191.49,679.81,1192.28,678.72,1193.48,677.81Z"/><path class="cls-4" d="M1193.82,623.31l.06-.07A11.67,11.67,0,0,1,1195,622l.06,0a15.37,15.37,0,0,1,1.39-1.19l0,0c.47-.37.94-.7,1.35-1l.06,0c.74-.5,1.31-.84,1.48-1l.06,0v0l-.2.28.22-.27,0,0v.06c0,.2-.22.85-.49,1.69a.14.14,0,0,1,0,.07c-.15.48-.34,1-.55,1.57l0,.07c-.22.55-.46,1.12-.74,1.67l0,.07a11.73,11.73,0,0,1-.85,1.43l0,.07c-.88,1.23-2,2-3.18,1.75h0l-.06,0-.22-.07,0,0h0l-.13-.2,0,0v0C1192.42,625.75,1192.9,624.49,1193.82,623.31Z"/><path class="cls-4" d="M1113.13,690.46q-.06,3.15-.17,6.36-.11,3.85-.25,7.79c0,.56,0,1.14-.07,1.7-.54,14.49-1.42,29.78-2.78,45-.06.62-.11,1.23-.17,1.86-1.28,14.06-3,28.05-5.23,41.29-.12.73-.24,1.43-.37,2.16a280.16,280.16,0,0,1-8.4,35.7H1050.8c.15-13.4,2.12-28.68,5.29-44.78.13-.72.27-1.43.42-2.15,2.66-13.16,6.07-26.82,9.92-40.4.17-.6.33-1.2.51-1.8,4.18-14.68,8.84-29.25,13.53-42.95.17-.54.36-1.08.54-1.62,3.41-9.93,6.83-19.4,10.08-28.11a.08.08,0,0,1,0,0q1.29-3.47,2.53-6.74s0,0,0-.05l1.15-3c.21-.56.42-1.11.63-1.64,6.85-17.85,12.5-31.31,15-37.19l.76-1.79.29-.65h0l.35-.81a2.88,2.88,0,0,0,0,.39v0c0,.35.05.74.05.74l-1.45,8.6.35-1.73,0-.15,1.36-6.67.47-1s0,.55.07,1.6c.1,2.69.31,8.67.48,17.1,0,1.44,0,3,.09,4.56.09,5.94.15,12.83.15,20.44,0,.57,0,1.16,0,1.76C1113.44,672.25,1113.35,681.1,1113.13,690.46Z"/><path class="cls-1" d="M1110.46,628.3l.35-1.73q-6.18,33.34-12.37,66.69-12.9,69.53-25.79,139H1072q4.63-25,9.26-49.94,13.82-74.43,27.62-148.87c.66-3.6,1.34-7.21,2-10.82v0c.21-1.09.41-2.19.61-3.27h0l.35-.81a2.88,2.88,0,0,0,0,.39v0c0,.35.05.74.05.74Z"/><path class="cls-1" d="M1082.94,828.71c-.27,1.2-.53,2.4-.8,3.6h-.69c4.73-20.49,8.57-41.2,12.14-61.92,7.17-41.6,13.16-83.42,18.63-125.28.34-2.56.67-5.14,1-7.7,0,1.44,0,3,.09,4.56q-3.37,26.16-7.16,52.27C1099.7,739.23,1092.9,784.34,1082.94,828.71Z"/><path class="cls-1" d="M1110.88,622.64v0c-6,22.77-11.77,45.61-17.35,68.48-10.73,44-21.18,88.24-28.64,132.93-.45,2.71-.93,5.46-1.4,8.22h-.58l0-.17c3.33-21.59,7.66-43,12.24-64.37,8.9-41.45,18.94-82.66,29.49-123.73,1.9-7.42,3.81-14.82,5.78-22.23l.76-1.79.29-.65h0l.35-.81a2.88,2.88,0,0,0,0,.39v0C1111.53,620.18,1111.2,621.41,1110.88,622.64Z"/><path class="cls-1" d="M1054.64,822.21c-.63,3.32-1.28,6.7-1.92,10.1h-.55l.36-2.07c3.67-21.21,8.41-42.23,13.41-63.16,7.72-32.36,16.23-64.54,25.15-96.58a.08.08,0,0,1,0,0q1.29-3.47,2.53-6.74-3.87,13.86-7.62,27.75C1074.29,734.69,1062.88,778.17,1054.64,822.21Z"/><path class="cls-1" d="M1109,725.32c-5.09,35.79-10.58,71.62-18.12,107h-.65c3.25-15.22,6-30.53,8.65-45.87,5.42-31.88,10-63.91,14.23-96q-.06,3.15-.17,6.36Q1111.07,711.09,1109,725.32Z"/><path class="cls-4" d="M275.52,834.29c3.38,6.83.78,12.7,2.28,19l182.66.56q14.37-9.58,28.53-19.38c7.66-5.3,15.55-10.94,19.61-18.73s3-18.4-5.06-23.26c-4.71-2.85-10.86-3.27-15.73-5.91-11.47-6.22-10.8-21.45-4.89-32.11s15.58-19.93,18.32-31.54-6.8-26.65-20-24.34c-3.41.59-6.6,2.29-10.07,2.17-10.7-.35-10.94-14.57-6.33-23.1,6-11,14.19-21.53,16-33.65s-5.91-26.69-19.73-27.84c-21.24-1.77-34.39,27.47-55.38,24.11-4.1-17.33,1.51-35.16,2.83-52.82A109.52,109.52,0,0,0,405,550.31c-3-10.95-8.05-21.93-17.52-29.49s-24.2-10.82-35.38-5.36c-6.86,3.35-11.48,9.36-15.28,15.42-28.38,45.15-24.45,99.86-24.85,151.48-.08,11.38-5,26.73-17.89,25.77-14.89-1.1-14.56-21.75-26.2-30-8.92-6.33-23.15-3.08-30.61,4.58S227.66,701,227.09,711a122.87,122.87,0,0,0,8.82,52.81C245.88,788.57,263.63,810.25,275.52,834.29Z"/><path class="cls-1" d="M455.39,853.86H628.5c10.84-10.19,19-22.69,21.16-38.55.29-2.08.19-4.78-1.73-6.15-1.13-.81-2.46-.8-3.72-1-7.85-1.53-11.84-12.73-9.83-19.92s7.45-12.32,9.78-19.35-.59-18.1-8.39-20.65c-3.89-1.27-7.63.09-11.54-.58-11.32-1.93-16.51-18.14-14.48-28.89s7.57-21,3.84-32.57a16.29,16.29,0,0,0-5.36-8.09c-10.44-7.75-19.83,8.27-31.62,5.21-8.39-8-10.08-19.93-13-30.59s-10.15-23.3-20.52-24.56c-5.73-.7-10.4,2.49-14.37,5.83-28,23.52-43.78,60.9-43,101.75.15,8.25.92,16.83-1.4,24.22s-8.72,13.43-16.91,12.11c-3.77-.61-7.49-2.68-11.26-3.41a17.15,17.15,0,0,0-14.52,4.16c-10.79,9.33-10.86,27.72-5.31,43.78C440.81,829.52,448.3,841.63,455.39,853.86Z"/><path class="cls-1" d="M291.83,786.66c.36,1.91.75,3.81,1.2,5.67s1,3.63,1.62,5.4a72.33,72.33,0,0,0,9.81,18.77,68.86,68.86,0,0,0,13.72,14.25,60.17,60.17,0,0,0,8.17,5.26,47.06,47.06,0,0,0,6.23,2.71v0q-1,7.56-2.19,15.12h4.76q.9-6.57,1.61-13.13c.07-.06.11-.14.19-.2a6.07,6.07,0,0,1,1.56-.8,3.82,3.82,0,0,1,.75-.15,8.86,8.86,0,0,0,1-.28c.68-.21,1.34-.45,2-.64,2.64-.88,5.2-1.72,7.77-2.71a74.49,74.49,0,0,0,15.65-8,52.46,52.46,0,0,0,14.79-15,41.21,41.21,0,0,0,4.86-10.48,23.63,23.63,0,0,0,.86-11,70.66,70.66,0,0,1-6.77,6.94c-2.15,1.92-4.26,3.55-6.36,5.13s-4.22,3.06-6.37,4.54l-6.59,4.48a109.61,109.61,0,0,0-14.25,11.17,57.09,57.09,0,0,0-6.85,7.77c-.52.74-1,1.46-1.53,2.24v0a0,0,0,0,0,0,0,486.64,486.64,0,0,0,1.85-62.06h0a25.2,25.2,0,0,1,5.45-5.06c2.13-1.52,4.22-2.66,6.58-4.24a42.38,42.38,0,0,0,7.61-6.22,37.38,37.38,0,0,0,3.8-4.74,43,43,0,0,0,3-5.3,45.64,45.64,0,0,0,4.41-21.73,41.37,41.37,0,0,0-1.57-9.49,36.87,36.87,0,0,0-1.54-4.32,26.32,26.32,0,0,0-2.11-4.08,81.49,81.49,0,0,0-3.82,9.73c-1,3.1-1.94,6-2.81,8.8a113.45,113.45,0,0,1-5.44,14.41,49.51,49.51,0,0,1-3.2,5.78c-1.27,2-3,4.22-5,6.94a44,44,0,0,0-5.41,9.67c-.17.46-.29.94-.44,1.42a.49.49,0,0,1,0-.12c-.28-5.19-.67-10.32-1.12-15.44-.07-.81-.16-1.65-.24-2.49s-.16-1.86-.26-2.78c-.55-5.24-1.18-10.39-1.89-15.57.64-1.68,1.3-3.29,2-4.88,1-2.32,2-4.62,3-6.92,2-4.61,3.77-9.24,5.42-14,.41-1.18.81-2.38,1.2-3.58.19-.61.39-1.21.57-1.83s.38-1.2.58-2a33.23,33.23,0,0,0,1.17-8.6,30.26,30.26,0,0,0-1-7.8,23.14,23.14,0,0,0-3-6.89,51.86,51.86,0,0,0-3.52,7.81c-.92,2.48-1.66,4.83-2.37,7s-1.33,4.25-2,6.2l-.54,1.68-.56,1.82c-.37,1.23-.72,2.46-1.05,3.72A91,91,0,0,0,332.87,711v0c-2-11.2-4.43-22.13-7.34-32.88,0,0,0,0,0,0v0c.17.25.31.51.49.76a52.63,52.63,0,0,0,3.87-14,67,67,0,0,0,.6-13,59.49,59.49,0,0,0-1.84-12.34A34.4,34.4,0,0,0,323.55,628a53.35,53.35,0,0,0-3.86,14,68.65,68.65,0,0,0-.61,13,59.47,59.47,0,0,0,1.82,12.35,37.15,37.15,0,0,0,4.05,9.77.44.44,0,0,0,0,.1v0q4.66,19.13,7.44,39.13a.88.88,0,0,0,0,.16q-.07,2,0,4c-.62-2-1.29-3.86-2-5.71a111.3,111.3,0,0,0-5.74-12.41,100.78,100.78,0,0,0-7-11.3A51.54,51.54,0,0,0,308.52,681a48.89,48.89,0,0,0,1.1,16.4,55.75,55.75,0,0,0,5.2,13.82,46.32,46.32,0,0,0,8.25,11.13,28.75,28.75,0,0,0,10.9,6.92v0c.27,2.22.47,4.47.67,6.73l0,0c.12,1.33.25,2.65.35,4a0,0,0,0,1,0,.05c.24,2.62.43,5.27.6,7.89.26,4.44.46,8.79.62,13.25l0,.1v0c-.15-.28-.27-.58-.41-.86-.73-1.37-1.48-2.72-2.27-4s-1.58-2.53-2.41-3.73a101.14,101.14,0,0,0-10.73-12.9,116.92,116.92,0,0,0-12-10.77c-1.06-.84-2.14-1.66-3.29-2.43s-2.25-1.59-3.44-2.35-2.37-1.53-3.67-2.23a27.14,27.14,0,0,0-4-2.05,40.65,40.65,0,0,0,.47,5.52c.29,1.75.67,3.43,1.09,5.1s1,3.21,1.54,4.75,1.23,3,1.91,4.44a56.42,56.42,0,0,0,10.41,14.72A54.73,54.73,0,0,0,323,764.75a49,49,0,0,0,7.85,3.28,43.85,43.85,0,0,0,5.65,1.26v.05l0,0a474,474,0,0,1-3.15,63.07v0c-.46-1.18-.91-2.37-1.4-3.5-.72-1.63-1.46-3.23-2.25-4.76s-1.56-3.07-2.39-4.54a166.69,166.69,0,0,0-10.56-16.45c-3.73-5.15-7.59-10.07-11.72-14.86-1-1.22-2.06-2.42-3.18-3.57s-2.15-2.38-3.3-3.54-2.26-2.36-3.51-3.49a34.59,34.59,0,0,0-3.86-3.4,50.93,50.93,0,0,0,0,6.3C291.3,782.71,291.55,784.69,291.83,786.66Z"/><path class="cls-1" d="M294.77,853.86l-4.27-9.3c-.86-1.84-1.71-3.72-2.64-5.62-.44-1-.93-1.92-1.41-2.89s-1-2-1.56-2.94c-.51,1.26-.91,2.5-1.31,3.76s-.7,2.51-1,3.76-.52,2.5-.77,3.77-.37,2.49-.55,3.75c-.23,1.91-.36,3.82-.44,5.71Z"/><path class="cls-4" d="M451.82,853.86c0-.53,0-1.08.05-1.63s0-1.16,0-1.76c-.58.52-1.1,1-1.62,1.59s-1,1.09-1.46,1.64l-.13.16Z"/><path class="cls-4" d="M467.86,853.86h8.31c0-.49,0-1,0-1.46a80.66,80.66,0,0,0-.94-10.19c-.49-3.29-1.12-6.48-1.91-9.66-.19-.8-.39-1.6-.64-2.39s-.44-1.6-.7-2.4-.51-1.61-.83-2.42a16.45,16.45,0,0,0-1-2.45,31.93,31.93,0,0,0-1.63,3.1c-.45,1-.84,2-1.21,3.07s-.62,2-.87,3-.44,2-.61,3a36.21,36.21,0,0,0,0,11.19A33.11,33.11,0,0,0,467.86,853.86Z"/><path class="cls-4" d="M519.55,808.38c-1.31,1.31-2.52,2.57-3.66,3.75a70.76,70.76,0,0,1-6.4,6,30.11,30.11,0,0,1-3.06,2.19c-1.13.7-2.59,1.46-4.23,2.41a27.46,27.46,0,0,0-5.15,3.67c-.21.19-.39.4-.59.6l0-.06c1.2-2.6,2.34-5.2,3.44-7.81.17-.41.35-.84.52-1.27s.41-.94.59-1.41c1.09-2.69,2.11-5.34,3.1-8,.75-.7,1.49-1.35,2.23-2,1.1-.94,2.18-1.86,3.26-2.8,2.15-1.86,4.23-3.78,6.27-5.77.51-.5,1-1,1.51-1.52l.76-.78c.25-.27.49-.52.79-.86a20.25,20.25,0,0,0,2.8-4,16.92,16.92,0,0,0,1.54-4,11.43,11.43,0,0,0,.31-4,32.33,32.33,0,0,0-3.74,3.13c-1.09,1-2.07,2-3,3s-1.75,1.82-2.57,2.65l-.7.72-.75.78c-.49.53-1,1.06-1.47,1.61a55.17,55.17,0,0,0-4.4,5.59v0c1.91-5.9,3.54-11.75,4.89-17.61,0,0,0,0,0,0v0c0,.16,0,.31,0,.47a32.89,32.89,0,0,0,5.51-6.07,40.56,40.56,0,0,0,3.66-6.28,33.88,33.88,0,0,0,2.29-6.43,17.75,17.75,0,0,0,.45-6.62,32.89,32.89,0,0,0-5.5,6.08,40.9,40.9,0,0,0-3.67,6.27,33.2,33.2,0,0,0-2.29,6.43,19.24,19.24,0,0,0-.54,5.61V782q-2.65,10.34-6.46,20.71l0,.09c-.37.64-.71,1.29-1,2,.21-1.09.37-2.15.51-3.2a58.22,58.22,0,0,0,.39-7.25,50.1,50.1,0,0,0-.52-6.95,24.76,24.76,0,0,0-1.91-6.84,28,28,0,0,0-3.7,8.27,29,29,0,0,0-1,7.83,22.21,22.21,0,0,0,1.17,7.13,13.25,13.25,0,0,0,3.56,5.58v0c-.45,1.14-.93,2.29-1.41,3.44v0c-.28.67-.56,1.35-.86,2a0,0,0,0,1,0,0c-.55,1.33-1.15,2.67-1.74,4-1,2.24-2,4.41-3.12,6.63v.08l0-.51c0-.82,0-1.63-.09-2.41s-.12-1.56-.22-2.32a47.43,47.43,0,0,0-1.93-8.49,55.06,55.06,0,0,0-3.13-7.71c-.3-.62-.62-1.24-1-1.85s-.69-1.23-1.08-1.84-.77-1.23-1.22-1.84a13.23,13.23,0,0,0-1.46-1.82,25.34,25.34,0,0,0-1.19,2.81c-.31.92-.56,1.82-.79,2.72s-.34,1.77-.46,2.65-.18,1.71-.21,2.56a27.25,27.25,0,0,0,1.31,9.32,25,25,0,0,0,4,7.72,23.16,23.16,0,0,0,3,3.19,18.86,18.86,0,0,0,2.45,1.75l0,0v0a278.73,278.73,0,0,1-13.9,24.32h2.42q6.76-11.21,12.3-22.64h0a15.71,15.71,0,0,1,4-1.39c1.44-.32,2.76-.46,4.33-.76a26.08,26.08,0,0,0,5.35-1.53,24.09,24.09,0,0,0,3.08-1.56,25.19,25.19,0,0,0,2.86-2,27.89,27.89,0,0,0,7.79-9.78,21.67,21.67,0,0,0,2-7.41,13,13,0,0,0,0-2.42A49.85,49.85,0,0,0,519.55,808.38Z"/><path class="cls-4" d="M502.79,853.67l-.87.19h6v2.93c.4-.38.8-.77,1.18-1.17a14,14,0,0,0,3.26-5.24,42.55,42.55,0,0,1-5.12,2C505.7,852.94,504.24,853.32,502.79,853.67Z"/><polygon class="cls-3" points="752.55 827.46 754.88 811.71 751.35 827.46 752.55 827.46"/><path class="cls-4" d="M799.28,827.46c9.81-13.75,14.09-31.29,14.67-50.51,0-.7,0-1.39,0-2.11a208.55,208.55,0,0,0-3.67-40.35c-.1-.6-.21-1.21-.33-1.82a367.79,367.79,0,0,0-11.23-43.86c-.17-.55-.34-1.11-.52-1.66-4.58-14.23-9.65-27.65-14.47-39.38-.22-.58-.46-1.15-.7-1.71-8.64-20.88-16.36-36.19-18.8-40.93l-.81-1.56c-.25.36-.51.68-.75,1h0q-10.83,14.94-19.76,28.75l-.85,1.34q-11.49,17.88-20,34c-.26.47-.5.93-.75,1.4a316.34,316.34,0,0,0-19.57,44.14c-.18.51-.37,1-.53,1.53-6.1,17.81-9.2,33.52-10.06,47.31,0,.62-.08,1.24-.11,1.84-1.43,28.37,6.57,48.55,16.8,62.59Z"/><path class="cls-1" d="M749.62,827.46q2.91-21.35,5.1-41.28c.09-.8.16-1.58.26-2.36,2.15-19.83,3.83-38.46,5.13-55.67.07-.79.13-1.58.18-2.38,1.31-17.54,2.21-33.55,2.83-47.81.06-1,.09-2,.13-2.94,1.63-38.49,1.18-63.56,1-69.89l-.81-1.56c-.25.36-.51.68-.75,1h0c.12,4.11.47,20.49-.19,46.34,0,.68,0,1.38,0,2.07-.35,13.5-1,29.42-2,47.46l-.12,1.92c-.89,14.77-2,30.9-3.6,48.21-.05.58-.11,1.16-.16,1.76-1.5,16.63-3.35,34.33-5.63,52.92-.08.59-.14,1.16-.21,1.75q-1.25,10-2.66,20.43Z"/><path class="cls-1" d="M756.77,827.46,814,777c0-.7,0-1.39,0-2.11l-59.58,52.62Z"/><path class="cls-1" d="M753.45,785.22l1.07,1.15,55.8-51.88c-.1-.6-.21-1.21-.33-1.82L755,783.8Z"/><path class="cls-1" d="M758.85,727.22,760,728.3l38.8-39.49c-.17-.55-.34-1.11-.52-1.66L760.3,725.76Z"/><path class="cls-1" d="M761.76,677.2l1.28.88,20.73-30.31c-.22-.58-.46-1.15-.7-1.71l-19.82,29Z"/><path class="cls-1" d="M760.31,702.39l.34.28,1-1.2-1.2-1-38.38-31.82c-.26.47-.5.93-.75,1.4Z"/><path class="cls-1" d="M762.46,653l.3.27,1-1.18-1.29-1.16-19.57-17.59-.85,1.34Z"/><path class="cls-1" d="M756.55,752.36l.41.27.85-1.3-1.1-.73-55-36.41c-.18.51-.37,1-.53,1.53Z"/><path class="cls-1" d="M750.71,807l.39.28L752,806l-1.08-.75L691.14,763c0,.62-.08,1.24-.11,1.84Z"/><path class="cls-4" d="M821.29,822.47c1.07-1.09,2.11-2.19,3.1-3.35s2-2.33,2.86-3.59c-1.33.47-2.61,1-3.87,1.58s-2.5,1.12-3.71,1.68c-2.42,1.11-4.74,2.16-6.94,3a30.77,30.77,0,0,1-12.15,2.39c-2.12,0-4.38,0-6.87.19a30.38,30.38,0,0,0-8.15,1.59,24.88,24.88,0,0,0-3.33,1.49h33.26c.82-.6,1.63-1.22,2.4-1.88C819.08,824.59,820.2,823.53,821.29,822.47Z"/><path class="cls-1" d="M770,823.67c.24,1.28.49,2.53.74,3.79h6.65a40.9,40.9,0,0,0,1.91-6.9,108.1,108.1,0,0,0,1.29-14.19c.24-4.29.58-8.6,1-13.12l.59-7c.09-1.19.2-2.41.28-3.66.05-.63.08-1.26.12-1.9s.07-1.29.06-2c-.59.55-1.12,1.13-1.66,1.71s-1,1.18-1.5,1.79-.92,1.22-1.39,1.84-.86,1.26-1.29,1.9a52,52,0,0,0-4.18,7.88,47.54,47.54,0,0,0-3.84,16.05,43.22,43.22,0,0,0,.23,7.29C769.19,819.5,769.56,821.62,770,823.67Z"/><path class="cls-1" d="M786,817.81c-2.58,3.23-5.23,6.45-7.9,9.65h4.09q3.2-4,6.29-8c5.94-7.81,11.53-15.85,16.72-24a.84.84,0,0,1,.14-.06,2.86,2.86,0,0,1,1,0,1.47,1.47,0,0,1,.4.09,5,5,0,0,0,.54.09c.38,0,.76.08,1.13.14,1.5.16,2.95.32,4.44.41a38.35,38.35,0,0,0,9.62-.54,30.11,30.11,0,0,0,11.13-4.52,26.91,26.91,0,0,0,5.17-4.48,16.21,16.21,0,0,0,3.42-5.73,41.82,41.82,0,0,1-5.12,2.11c-1.54.52-3,.89-4.42,1.23s-2.85.64-4.27.92l-4.36.83a60.29,60.29,0,0,0-9.83,2.59,34.28,34.28,0,0,0-5.38,2.54c-.44.27-.89.54-1.33.84h0a0,0,0,0,0,0,0,334.13,334.13,0,0,0,17.84-33h0a14.45,14.45,0,0,1,4-1.41c1.43-.31,2.73-.42,4.29-.7a23.06,23.06,0,0,0,5.32-1.53,20.62,20.62,0,0,0,3.1-1.64,25.9,25.9,0,0,0,2.89-2.13,30.76,30.76,0,0,0,8-10.65,28.26,28.26,0,0,0,1.85-5.5,25.71,25.71,0,0,0,.44-2.7,16.26,16.26,0,0,0,.11-2.71,54.62,54.62,0,0,0-4.47,4.33c-1.33,1.43-2.57,2.79-3.74,4.07a75.47,75.47,0,0,1-6.52,6.46,33.28,33.28,0,0,1-3.1,2.35c-1.14.74-2.6,1.54-4.26,2.55a27,27,0,0,0-5.21,3.91c-.21.21-.4.44-.6.65l0-.06c1.28-2.87,2.5-5.73,3.69-8.6l.56-1.4c.22-.52.44-1,.63-1.56,1.18-3,2.29-5.89,3.36-8.85.76-.76,1.52-1.46,2.28-2.16l3.31-3c2.19-2,4.31-4.07,6.39-6.23.52-.54,1-1.09,1.55-1.65l.77-.84c.26-.29.51-.56.81-.93a22.84,22.84,0,0,0,2.91-4.36,20,20,0,0,0,1.67-4.44,15.09,15.09,0,0,0,.47-4.44,32.33,32.33,0,0,0-3.81,3.37c-1.12,1.11-2.11,2.2-3.05,3.21s-1.79,2-2.63,2.87l-.71.78-.77.85c-.51.57-1,1.15-1.51,1.74a61,61,0,0,0-4.55,6.09v0c2.1-6.52,3.93-13,5.49-19.49,0,0,0,0,0,0v0c0,.17,0,.35,0,.53a35.27,35.27,0,0,0,5.65-6.6,46.7,46.7,0,0,0,3.85-6.88,40.24,40.24,0,0,0,2.49-7.1,22.27,22.27,0,0,0,.71-7.38,36,36,0,0,0-5.65,6.6,47.22,47.22,0,0,0-3.85,6.88,40.61,40.61,0,0,0-2.51,7.1,24.17,24.17,0,0,0-.74,6.24l0,.06v0q-3,11.45-7.16,22.9l0,.09c-.39.71-.74,1.43-1.08,2.16.25-1.21.45-2.39.62-3.56a69.05,69.05,0,0,0,.66-8.07,61,61,0,0,0-.24-7.78,30.57,30.57,0,0,0-1.61-7.7,33.45,33.45,0,0,0-4,9.11,36.18,36.18,0,0,0-1.3,8.71,27.7,27.7,0,0,0,.88,8,15.19,15.19,0,0,0,3.29,6.36v0c-.47,1.25-1,2.52-1.51,3.79v0c-.3.74-.6,1.49-.92,2.24a0,0,0,0,1,0,0c-.6,1.47-1.24,3-1.88,4.4-1.08,2.46-2.17,4.85-3.32,7.29v.07h0c0-.18,0-.37,0-.56,0-.91,0-1.82,0-2.69s-.06-1.75-.12-2.6a60.87,60.87,0,0,0-1.58-9.54,65,65,0,0,0-2.78-8.71c-.28-.71-.56-1.41-.9-2.1s-.64-1.4-1-2.09a22.43,22.43,0,0,0-1.13-2.09,15.1,15.1,0,0,0-1.36-2.08,27.36,27.36,0,0,0-1.28,3.09c-.34,1-.62,2-.88,3s-.41,2-.56,2.94-.24,1.91-.31,2.85a34.36,34.36,0,0,0,.93,10.45,30.11,30.11,0,0,0,3.67,8.75,25.07,25.07,0,0,0,2.84,3.66,20,20,0,0,0,2.34,2v.05a325.34,325.34,0,0,1-18.73,33.26l0,0c.11-.75.22-1.5.29-2.23.1-1,.19-2.09.23-3.11s.1-2,.11-3a105.53,105.53,0,0,0-.53-11.42c-.36-3.68-.86-7.26-1.51-10.84-.16-.9-.32-1.79-.54-2.68s-.37-1.81-.6-2.71-.43-1.82-.72-2.73a21.13,21.13,0,0,0-.9-2.76,37.53,37.53,0,0,0-1.73,3.4c-.48,1.12-.9,2.25-1.3,3.38s-.69,2.23-1,3.35-.5,2.2-.71,3.3a46.06,46.06,0,0,0-.46,12.48,39.83,39.83,0,0,0,2.63,11,32,32,0,0,0,2.45,4.81,24.31,24.31,0,0,0,2.22,3h0Q795.45,805.88,786,817.81Z"/><path class="cls-4" d="M809.62,821h0q-5.18,3.39-10.6,6.44H802c2.69-1.64,5.35-3.33,7.94-5.1H810a1.78,1.78,0,0,1,.49.18.61.61,0,0,1,.17.14l.26.16c.17.1.36.2.53.31.71.4,1.39.79,2.11,1.16a20.4,20.4,0,0,0,4.9,1.8,16.29,16.29,0,0,0,6.5.15,14.31,14.31,0,0,0,3.53-1.11,8.64,8.64,0,0,0,2.93-2.12,20.53,20.53,0,0,1-3,0c-.88-.07-1.68-.2-2.47-.34s-1.55-.29-2.31-.46l-2.34-.53a32.83,32.83,0,0,0-5.45-.82,18.57,18.57,0,0,0-3.22.1l-.84.13h0a179.29,179.29,0,0,0,16-12.57h0a8,8,0,0,1,2.27.15c.78.16,1.45.38,2.28.58a12.69,12.69,0,0,0,3,.39,12.53,12.53,0,0,0,1.89-.15,13.63,13.63,0,0,0,1.89-.44,16.57,16.57,0,0,0,6.28-3.56,14.65,14.65,0,0,0,2.1-2.34,11,11,0,0,0,.81-1.24,8.88,8.88,0,0,0,.63-1.32,30.12,30.12,0,0,0-3.15,1.18L843,803a41.47,41.47,0,0,1-4.63,1.81,17.46,17.46,0,0,1-2,.5c-.72.12-1.62.2-2.66.35a14.51,14.51,0,0,0-3.43.82l-.44.2,0,0c1.25-1.15,2.47-2.31,3.68-3.48l.58-.57.65-.64c1.22-1.22,2.4-2.43,3.57-3.68.55-.21,1.07-.4,1.6-.58l2.29-.78c1.52-.53,3-1.1,4.52-1.72l1.12-.49.57-.25.6-.29a11.46,11.46,0,0,0,2.38-1.54,11.06,11.06,0,0,0,1.79-1.84,8.1,8.1,0,0,0,1.18-2.11,17.36,17.36,0,0,0-2.61.86c-.8.31-1.53.64-2.21.94l-1.92.86-.52.23-.57.25-1.13.55a33.3,33.3,0,0,0-3.56,2h0q3.67-4.18,6.93-8.51s0,0,0,0h0c0,.09-.08.18-.1.27A19,19,0,0,0,852.9,784a24.22,24.22,0,0,0,3.39-2.59,21.63,21.63,0,0,0,2.77-3A12,12,0,0,0,861,775a19.35,19.35,0,0,0-4.23,2.06,25.45,25.45,0,0,0-3.39,2.59,21.63,21.63,0,0,0-2.77,3,12.88,12.88,0,0,0-1.72,2.94l0,0h0q-4,5-8.48,9.84l0,0c-.34.26-.68.54-1,.84.38-.55.74-1.1,1.08-1.64a39.32,39.32,0,0,0,2.06-3.87,34.23,34.23,0,0,0,1.56-3.91,16.78,16.78,0,0,0,.85-4.17,18.33,18.33,0,0,0-3.93,3.67,20,20,0,0,0-2.52,4,15.43,15.43,0,0,0-1.28,4.16,8.29,8.29,0,0,0,.27,3.87h0c-.51.52-1,1-1.57,1.56h0c-.31.3-.61.61-.94.91h0c-.62.6-1.25,1.19-1.88,1.78-1.07,1-2.12,1.94-3.22,2.91l0,0h0l.15-.27c.21-.45.41-.89.58-1.33s.35-.88.49-1.32a31.44,31.44,0,0,0,1.27-5.08,36,36,0,0,0,.5-4.92c0-.41,0-.83,0-1.24s0-.83,0-1.26-.05-.84-.11-1.28a9.14,9.14,0,0,0-.23-1.32,15.77,15.77,0,0,0-1.31,1.26c-.38.43-.74.86-1.08,1.31s-.63.88-.91,1.33-.53.9-.77,1.35a18.53,18.53,0,0,0-1.78,5.39,16.15,16.15,0,0,0-.06,5.14,13.53,13.53,0,0,0,.62,2.43,11.1,11.1,0,0,0,.73,1.52h0a176.52,176.52,0,0,1-16.46,12.49h0c.22-.35.43-.7.63-1,.27-.5.54-1,.78-1.5s.49-1,.7-1.48a55.1,55.1,0,0,0,2.19-5.78c.62-1.91,1.14-3.79,1.59-5.71.11-.48.23-1,.31-1.45s.2-1,.28-1.48.18-1,.23-1.51a11.15,11.15,0,0,0,.15-1.56c-.57.42-1.09.86-1.59,1.31s-.93.93-1.37,1.4-.83,1-1.21,1.46-.73,1-1.06,1.49a24.62,24.62,0,0,0-2.92,6.1,21.56,21.56,0,0,0-1.06,6,17.76,17.76,0,0,0,.18,2.92A14.8,14.8,0,0,0,809.62,821Z"/><path class="cls-4" d="M792.75,827.46c1-1.74,1.78-3.4,2.55-4.93,1-2.07,2.14-4.14,3.3-6.3l1.79-3.33c.31-.58.62-1.16.93-1.76.16-.3.31-.61.47-.92s.31-.63.45-1c-.41.15-.8.32-1.19.49s-.76.37-1.13.57-.72.41-1.09.61l-1.05.67a28.77,28.77,0,0,0-3.77,3,25.86,25.86,0,0,0-5.36,7.15,24.54,24.54,0,0,0-1.46,3.67c-.21.69-.39,1.37-.55,2Z"/></g><g id="Слой_2" data-name="Слой 2"><path class="cls-6" d="M99.08,764.05s-197.43,48.46-34.9,71,193.2,1,183.61,25.67,63.78,28.92,181,25.64,86.61,29.21,221.33,28,361.11-2.31,307.64-23.19,104.36-28.4,97.22-.87,213.34,24.66,186.93,0S1203,805.73,1312,805.73s145.94-27.31,19.2-43.18Z"/><ellipse class="cls-2" cx="1110.42" cy="856.79" rx="6.9" ry="1.7"/><path class="cls-7" d="M577.34,184.79a36.38,36.38,0,0,0,.92-13,12.07,12.07,0,0,0-2.14-6.29c-1.39-1.76-3.9-2.81-6-1.91,2.22-5.43,3.37-11.89,1.22-17.35s-8.51-9.5-14-7.46c-4.61,1.71-7,6.76-8.21,11.53a49.34,49.34,0,0,0,10,43.27C566.61,192.61,575.48,192,577.34,184.79Z"/><rect class="cls-8" x="556.9" y="109.29" width="12.45" height="58.22" rx="0.95" ry="0.95" transform="translate(1143.02 138.61) rotate(166.21)"/><path class="cls-7" d="M557.37,138.76a8.89,8.89,0,0,1,4.2-.47,9.22,9.22,0,0,1,1.26,1.54c2,3.14,2.4,7,2.38,10.77s-.39,7.5.35,11.16,2.86,7.29,6.32,8.68c-5,2.51-12.21,1.65-16.79-1.58a18.53,18.53,0,0,1-7.11-11,45.63,45.63,0,0,1,1.18-7.55C550.36,145.52,552.76,140.47,557.37,138.76Z"/><path class="cls-9" d="M752.84,144.84c-20.66,9.11-36,27.34-47.57,46.71S684.94,231.93,672.9,251c-4.47,7.08-9.67,14.13-17.13,17.93-11.84,6.05-26.51,2.36-37.95-4.41-26.3-15.55-41.9-47.48-38-77.79-7.58-5.69-19.36-8.92-28.06-5.12-9.48,41.09-2.64,87.27,24.87,119.23S652.73,347,691,329.33c4.52-49.64,23.93-101.24,49.64-143.93C748,173.26,756.26,158.59,752.84,144.84Z"/><path class="cls-10" d="M752.84,144.84c-20.66,9.11-36,27.34-47.57,46.71S684.94,231.93,672.9,251c-4.47,7.08-9.67,14.13-17.13,17.93-11.84,6.05-26.51,2.36-37.95-4.41-26.3-15.55-41.9-47.48-38-77.79-7.58-5.69-19.36-8.92-28.06-5.12-9.48,41.09-2.64,87.27,24.87,119.23S652.73,347,691,329.33c4.52-49.64,23.93-101.24,49.64-143.93C748,173.26,756.26,158.59,752.84,144.84Z"/><path class="cls-9" d="M675.5,723.73c2-12.2,11-21.94,19.67-30.77q31.76-32.31,65.75-62.32c-9.86-44.56-25.15-85.54-44.83-126.71-3.73-7.79-8.53-16.27-16.86-18.54-11-3-21.42,6.56-27.42,16.27-14.65,23.74-18.48,52.53-19.44,80.41C650.67,631.22,661.76,676.52,675.5,723.73Z"/><path class="cls-11" d="M675.5,723.73c2-12.2,11-21.94,19.67-30.77q31.76-32.31,65.75-62.32c-9.86-44.56-25.15-85.54-44.83-126.71-3.73-7.79-8.53-16.27-16.86-18.54-11-3-21.42,6.56-27.42,16.27-14.65,23.74-18.48,52.53-19.44,80.41C650.67,631.22,661.76,676.52,675.5,723.73Z"/><path class="cls-12" d="M743,278.42a62.57,62.57,0,0,1-52.59-95.69c3.67-5.88,8.33-11.18,11.23-17.48s3.73-14.18-.26-19.85c-5.68-8.06-18.43-8.45-24.08-16.54-4.43-6.36-2.73-15.29,1.23-22s9.83-12,14.18-18.41,7.11-14.84,3.89-21.89c-1.59-3.48-4.52-6.36-5.37-10.09-1.25-5.47,2.58-11.09,7.53-13.75s10.76-3,16.37-3.38c0-15.2,7.59-31.11,21.7-36.77a39.34,39.34,0,0,1,42,9.06c5,5.17,8.47,11.73,14.1,16.17,16.82,13.24,46,3.2,59.6,19.74,10,12.1,4.43,30.26-2.69,44.22s-15.66,29.69-10.26,44.4c7,19,31.89,23.26,46.39,37.35,13.56,13.17,16.4,36,6.5,52.08-6.47,10.51-17.43,18-22.61,29.16-11.1,24,8.79,52.33,2.87,78.11-3.35,14.63-14.87,26.39-28.25,33.18-25,12.68-57.36,9-78.82-9S734.85,305.22,743,278.42Z"/><path class="cls-12" d="M832,741.79a15.21,15.21,0,0,1,13.16,10.93c1.38,5.13-.06,10.68,1.26,15.82a15.55,15.55,0,0,0,14.77,11.32l11.56-50.81c-11.3-4.33-24.43-6.55-36.42-4.86C835.34,729.57,832.93,736.41,832,741.79Z"/><path class="cls-13" d="M664.9,385.08c-5.64,50.9-11.29,102.17-7.12,153.21s18.83,102.42,50.1,143,80.82,68.82,132,66.51c1.69-8,4.41-17.27,6.09-25.3-48.87-17.57-84-68.16-94.94-118.92s-2.78-103.76,10.5-154c4.19-15.83,8.82-33,2.69-48.12-7-17.25-26.48-26.74-45.07-27.44S682.4,378.78,664.9,385.08Z"/><path class="cls-14" d="M664.9,385.08c-5.64,50.9-11.29,102.17-7.12,153.21s18.83,102.42,50.1,143,80.82,68.82,132,66.51c1.69-8,4.41-17.27,6.09-25.3-48.87-17.57-84-68.16-94.94-118.92s-2.78-103.76,10.5-154c4.19-15.83,8.82-33,2.69-48.12-7-17.25-26.48-26.74-45.07-27.44S682.4,378.78,664.9,385.08Z"/><path class="cls-12" d="M761.69,803.78A23.16,23.16,0,0,1,749.9,827c-7.15,3.77-15.89,3.51-23.07,7.21A23.67,23.67,0,0,0,715,860h79.39c2.62-18.25,1.48-38.51-5.08-55.74C781,804.66,770,803.4,761.69,803.78Z"/><path class="cls-15" d="M794.28,818.08H759.34C711,680,686.42,530.65,685.85,384.37L828.62,390C809.6,531.62,793.6,675.21,794.28,818.08Z"/><path class="cls-16" d="M657.71,387.59c8.24-5.57,20.09-4.88,28.2.84,0-1.35,0-2.71-.06-4.06L828.62,390q-4.36,32.52-8.46,65.17c-58.73,2.11-118.34-18.36-162.76-56.9C657.51,394.72,657.58,391.16,657.71,387.59Z"/><path class="cls-17" d="M650.75,429.18c59,25.22,128.67,29,192.14,20.3,11.19-52.14,13.08-149.16,1.42-201.19-5-22.35-12.26-44.6-25.43-63.33S786,151.24,763.32,147.8a80.14,80.14,0,0,0-40.49,4.72,67.3,67.3,0,0,0-24.42,16c-15.79,16.67-24.28,38.9-30.31,61.06C653,284.87,650.17,371.9,650.75,429.18Z"/><path class="cls-16" d="M753,147.8c-16.4,70.12-10.52,162.11-10.06,234.13.41,62-16.4,122.69-23.85,184.25s-4.2,128.32,31.51,179c51.16-15.22,95.64-37.68,135-73.74-34.7-35.52-49.86-92.57-54.16-142s1.69-99.15,4.54-148.72,2.35-100.46-14.27-147.25c-6.83-19.24-27-31.6-32.11-51.36C783.89,160.39,753,147.8,753,147.8Z"/><path class="cls-18" d="M763.32,147.8c-16.41,70.12-10.53,162.11-10.06,234.13.4,62-16.4,122.69-23.85,184.25s-4.2,128.32,31.51,179c51.16-15.22,95.64-37.68,135-73.74-34.69-35.52-49.86-92.57-54.16-142s1.7-99.15,4.55-148.72S848.64,280.23,832,233.44c-6.84-19.24-27-31.6-32.12-51.36-3.67-14.08-11.55-24.54-21.15-30C773.58,149.14,763.32,147.8,763.32,147.8Z"/><path class="cls-16" d="M761.36,207.74c29.62,88.33,56.41,182,39.1,273.55-1.36,7.15-3,14.4-2.24,21.64s4.38,14.66,10.93,17.82c31.91-66.95,38.78-145.69,30.57-219.4-2.51-22.45-6.41-45.65-19.31-64.2S782.68,200.28,761.36,207.74Z"/><path class="cls-16" d="M717.74,160.36l7.88-7.28s1.33,7.43-2.31,16.88-19.2,38.37-28.4,71a160.44,160.44,0,0,0-.82,82c11.52,45.87,17.86,66.7,17.26,86.09a214.79,214.79,0,0,1-4.55,37.43l-11.54-2.63-10.35-80.47-10.24-60.15,11.46-87.13,15.76-44.21Z"/><path class="cls-16" d="M817.43,461.92l-46.34-.4c1.64,11.65-3.09,27.79-4.35,39.49s-1.41,24.1,4,34.57,17.79,18.14,29,14.55c10.06-3.23,15.69-13.85,18.79-24C824.74,505.84,823.47,482.32,817.43,461.92Z"/><path class="cls-18" d="M731.11,144.14c-26.22,47.08-53.28,97.8-48.8,151.51,3.47,41.58,25.84,81.09,22,122.64-2.73,29.55-18.42,56.07-28.83,83.86-26.06,69.57-17.67,151.13,22,213.93-7.09,14.43-24.45,28.12-40.2,31.34-19.4-84.86-23.61-168.46-24-255.52-.36-70,31.67-106.82,10.49-209.58-5.63-27.3,10.84-55.11,24-79.69S705,153.75,731.11,144.14Z"/><path class="cls-7" d="M817.76,473.53c-.39,4-1,8.41-4,11-2.24,1.94-5.34,2.48-7.87,4-5.38,3.26-7,11.4-3.26,16.47-2.79,4.37-5.86,8.08-6.57,13.22s1.06,10.94,5.5,13.61c5.7,3.42,13.23.47,18.16-4,6-5.45,10-12.92,12.29-20.7s3.16-15.93,3.76-24C832.15,476.4,825.16,471.57,817.76,473.53Z"/><path class="cls-18" d="M773.54,151c35,6.55,64.14,32.94,80.47,64.59s21.21,68.06,21.21,103.67a413.4,413.4,0,0,1-37.29,171.26c-8-1.88-17.46-6.44-24.87-10.05,15.53-64.39,7.76-136-19.78-196.24-9.84-21.51-22.28-42-29.17-64.59S760.58,170.73,773.54,151Z"/><path class="cls-7" d="M759.21,110.74a336.2,336.2,0,0,1,9.27,43.86c-14.14,3.76-28.24,6.19-42.86,5.73.9-16.33,3.75-31.39,4.65-47.71C741,112.29,748.47,111.07,759.21,110.74Z"/><path class="cls-16" d="M759.21,110.74c1.39,4.93,2.62,9.89,3.79,14.88a118.41,118.41,0,0,1-33.91,34.73c-1.15,0-2.31,0-3.47,0,.9-16.33,3.75-31.39,4.65-47.71C741,112.29,748.47,111.07,759.21,110.74Z"/><path class="cls-7" d="M708.94,64a114.39,114.39,0,0,0,9.74,74c13.63,2.37,28.2-1.65,39.41-9.77A52.56,52.56,0,0,0,779,93.64c1.83-12.65-1.35-26.18-9.55-36S747.89,42.28,735.3,44.43,711.52,51.52,708.94,64Z"/><path class="cls-12" d="M696.72,86.66a44.56,44.56,0,0,0,30.65-31.27c-.72,7.81.74,14.52,2.4,22.19s6.1,15.14,13.2,18.49c5.16,2.44,11.58,2.71,15.5,6.85,5.93,6.26,2.3,16.54,4.3,24.93,2.14,9,11.33,15.27,20.57,15.64s18.17-4.38,24.52-11.1c-2.28-15.46,0-30-.69-45.59s-3-31.64-11-45-22.77-23.69-38.35-22.63c-17,1.15-30.2,14.58-41.68,27.14-5.5-.51-9.39,4.46-11.84,9.4s-2.89,10.62-3.49,16.11S699.88,82.13,696.72,86.66Z"/><path class="cls-19" d="M728.64,129.17a3.12,3.12,0,0,1-.43.27c-2.15,1.2-5,1.62-7.27-.35-2-1.7-4.3-6.06-3.19-7.18a1,1,0,0,1,.71-.26c1.13,0,2.79,1.82,5.29,2.64,3,1,6.92,1,7.14,1.21C731.68,126.48,730.15,128.18,728.64,129.17Z"/><path class="cls-20" d="M728.64,129.17a3.12,3.12,0,0,1-.43.27c-2.15,1.2-5,1.62-7.27-.35-2-1.7-4.3-6.06-3.19-7.18,1.5.39,2.89,2.57,5.28,4C724.85,127.07,727.78,127.22,728.64,129.17Z"/><path class="cls-12" d="M718.89,98.09a1.82,1.82,0,1,1-.77-2.46A1.83,1.83,0,0,1,718.89,98.09Z"/><path class="cls-21" d="M717.19,97a.63.63,0,1,1-.27-.85A.63.63,0,0,1,717.19,97Z"/><path class="cls-12" d="M738.79,104.15a1.79,1.79,0,1,1-.77-2.41A1.79,1.79,0,0,1,738.79,104.15Z"/><path class="cls-21" d="M737.25,103a.62.62,0,1,1-.26-.83A.61.61,0,0,1,737.25,103Z"/><path class="cls-12" d="M714.29,91.42a4,4,0,0,1,1.46-1,5.35,5.35,0,0,1,1.79-.42,5.53,5.53,0,0,1,2.13.34,6.11,6.11,0,0,1,1.8,1.13,6.88,6.88,0,0,1,1.13,1.42,5.4,5.4,0,0,1,.55,1.13c.11.28.16.44.16.44a4.4,4.4,0,0,1-.35-.32c-.22-.2-.5-.51-.88-.83a10.86,10.86,0,0,0-1.27-1,7.87,7.87,0,0,0-1.57-.84A8.29,8.29,0,0,0,714.29,91.42Z"/><path class="cls-12" d="M734.48,97.08a4,4,0,0,1,1.46-1,5.35,5.35,0,0,1,1.79-.42,5.48,5.48,0,0,1,2.12.34,6.16,6.16,0,0,1,1.81,1.13,6.88,6.88,0,0,1,1.13,1.42,5.4,5.4,0,0,1,.55,1.13c.11.28.16.44.16.44a4.4,4.4,0,0,1-.35-.32c-.22-.2-.5-.51-.88-.83A10.86,10.86,0,0,0,741,98a8.15,8.15,0,0,0-1.57-.84A8.29,8.29,0,0,0,734.48,97.08Z"/><path class="cls-22" d="M724.3,97.52a5.71,5.71,0,0,1,.14.93,11,11,0,0,1-.09,2.48,15.76,15.76,0,0,1-.38,1.64,7.8,7.8,0,0,1-.7,1.75c-.6,1.15-1.28,2.27-1.95,3.4a36.89,36.89,0,0,0-2,3.18,11.66,11.66,0,0,0-.66,1.36,1.08,1.08,0,0,0,.15,1,6.19,6.19,0,0,0,1.45,1.65c.44.36.71.56.71.56h0a.06.06,0,0,1,0,.08.07.07,0,0,1-.07,0,6.67,6.67,0,0,1-.83-.39,5.9,5.9,0,0,1-1.86-1.51,2,2,0,0,1-.46-1.54,6.48,6.48,0,0,1,.61-1.69c.55-1.12,1.25-2.24,1.94-3.35s1.44-2.21,2.06-3.27a13,13,0,0,0,1.29-3.08,13.26,13.26,0,0,0,.53-3.22s0-.06,0-.06a.05.05,0,0,1,.06,0Z"/><path class="cls-20" d="M730.45,123.66a2.53,2.53,0,0,1,1.28,3.41A4.28,4.28,0,0,0,730.45,123.66Z"/></g></g></svg>