<svg xmlns="http://www.w3.org/2000/svg" viewBox="0 0 273.61 209.85"><defs><style>.cls-1{fill:#fff;}.cls-2{fill:#fc4242;}</style></defs><title>Asset 2</title><g id="Layer_2" data-name="Layer 2"><g id="OBJECTS"><path class="cls-1" d="M243.62,0H30A30,30,0,0,0,0,30V151.27a30,30,0,0,0,30,30H94.68A23,23,0,0,1,111,188l19,19a9.68,9.68,0,0,0,13.69,0l19-19a23,23,0,0,1,16.27-6.74h64.68a30,30,0,0,0,30-30V30A30,30,0,0,0,243.62,0Z"/><circle class="cls-2" cx="77.57" cy="78.99" r="21.67"/><path class="cls-2" d="M36.54,124.06h0a15.37,15.37,0,0,1,15.32-15.32h51.43a15.37,15.37,0,0,1,15.32,15.32h0v8.28H36.54Z"/></g></g></svg>