<svg xmlns="http://www.w3.org/2000/svg" viewBox="0 0 30.77 25.42">
  <defs>
    <style>
      .cls-2{fill:#f5f5f5}
    </style>
  </defs>
  <g id="Layer_2" data-name="Layer 2">
    <g id="OBJECTS">
      <path d="M26.54 0H4.24A4.24 4.24 0 000 4.24v12.9a4.24 4.24 0 004.24 4.24h5.19a3.24 3.24 0 012.3.95L14.42 25a1.37 1.37 0 001.93 0L19 22.33a3.25 3.25 0 012.3-.95h5.2a4.23 4.23 0 004.23-4.24V4.24A4.23 4.23 0 0026.54 0z" fill="#ef758a"/>
      <circle class="cls-2" cx="15.39" cy="8.62" r="3.06"/>
      <path class="cls-2" d="M9.59 15a2.17 2.17 0 012.16-2.17H19A2.18 2.18 0 0121.19 15v1.17H9.59z"/>
    </g>
  </g>
</svg>
