<svg version="1.1" id="OBJECTS" xmlns="http://www.w3.org/2000/svg" x="0" y="0" viewBox="0 0 239.5 199" xml:space="preserve">
  <style>
    .st0{fill:#f2d3b1}.st1{fill:#0a344c}.st2{fill:#ffe1bd}.st3{fill:#f7b626}.st4{fill:#ffcf9f}.st8{fill:#efcba5}.st9{fill:#fda9ff}.st11{fill:#29d6d6}.st12{fill:none;stroke:#0a344c;stroke-width:.25;stroke-miterlimit:10}.st13{fill:#052533}.st14{fill:#e18ce5}.st16{fill:#fff}
  </style>
  <path class="st0" d="M237.1 57.6s-.3.6-1.2.9c-.9.3-4.3.9-4.3.9L233 58l4.1-.4z"/>
  <path class="st0" d="M238.3 56.7s-.3.6-1.2.9c-.9.3-4.3.9-4.3.9l1.4-1.4 4.1-.4z"/>
  <path class="st0" d="M235.7 58.2s-.3.6-1.2.9c-.9.3-4.3.9-4.3.9l1.4-1.4 4.1-.4z"/>
  <path class="st1" d="M104.9 88.1s5.9-4.4 9.8-13.3c4.5 6.1-.1 23.3-.1 23.3l-9.7-10zM97.2 102.4s-2.2 16.2 4.4 18.9c7.3-1.5 3.1-17.9 3.1-17.9l-7.5-1z"/>
  <path class="st2" d="M70 27.7c-.2 2.8.5 10.2.5 10.2l-7.9-4.1c.4-3.2.7-6.4.6-9.7-.1-1.5-.2-3-.4-4.5 2.6-.1 6.5.4 9.1 3.8-.3.3-.6.6-.8 1-.6 1-1 2-1.1 3.3z"/>
  <path class="st3" d="M130.4 98.1L118 111.7c-13.7-3.5-26-8.3-37.7-14.7-6.5-3.5-12.9-7.6-19.2-12.2 0 0-2.2-1.9-2.8-2.9-.6-1-.6-3.8-.6-3.8-.1-14.5 2.3-34.1 4.2-48.6 0 0 .7-.2 1.6-.3 2.2-.4 6-.7 7.5.7 1.1 11.7 2.9 28.2 1.5 44.8l.3.3c9.6 3.3 19.1 7.2 27.9 9.3 5.4 1.3 12.4.7 17.7 2.5 5.3 1.7 8.9 6.7 12 11.3z"/>
  <path class="st4" d="M64.7 29c-.1.4-.1.9-.2 1.5-.2 1.1-.3 2.5-.5 4.1-.2 1.6-.4 3.4-.6 5.3-.2 1.9-.4 4-.6 6.3-.2 2.2-.3 4.6-.4 7-.1 2.4-.3 5-.4 7.5-.2 2.6-.4 5.2-.5 7.8-.2 2.6-.4 5.2-.3 7.8 0 .7 0 1.3.1 1.9l.1 1c0 .4.2.7.3 1 .3.6.8 1.2 1.3 1.6.5.4 1.1.7 1.6 1 2.1 1.3 4.1 2.5 6.1 3.6 1.9 1.1 3.8 2.1 5.5 3 3.5 1.8 6.5 3.1 8.6 4 1.1.4 1.9.7 2.5.9l.9.3v-.1l-.9-.3c-.6-.2-1.4-.6-2.4-1.1-2.1-1-4.9-2.5-8.3-4.4-1.7-1-3.5-2-5.5-3.1-1.9-1.1-4-2.3-6-3.6-.5-.3-1-.6-1.5-1-.5-.3-.8-.8-1.1-1.2-.1-.2-.2-.5-.3-.7l-.1-.9c-.1-.6-.1-1.2-.1-1.9-.1-1.3-.1-2.5-.1-3.8v-3.9l.3-7.8c.2-2.6.4-5.1.7-7.5.2-2.4.5-4.8.7-7 .2-2.2.4-4.3.5-6.3.2-1.9.3-3.7.4-5.3.1-1.6.2-3 .3-4.1 0-.6.1-1.1.1-1.6h-.2z"/>
  <path d="M103.6 91.6S89.4 95 80.3 97.1c-6.5-3.5-12.9-7.6-19.2-12.2 0 0-2.2-1.9-2.8-2.9-.6-1-.6-3.8-.6-3.8-.1-14.6 2.3-34.2 4.2-48.7 0 0 .7-.2 1.6-.3-.4 4.4-2.7 26.9-3 31.8-.3 5.4-.8 17.4-.4 19.3.4 1.9 12.9 9.9 15.1 10.5 2.3.6 11.5 1.6 14.7 1.4 3.2-.4 7.7-1.8 13.7-.6z" opacity=".3" fill="#f49727"/>
  <path class="st2" d="M29.5 64.6l-8.6 2.1C19 64 17.2 61.4 15 59c-1-1.1-2.2-2.2-3.3-3.2 1-1.5 3.5-3.6 9.5-3.8 0 .7-.1 1.4-.1 2.1.2 1.3.5 2.2 1.3 3.3 1.7 2 7.1 7.2 7.1 7.2z"/>
  <path class="st3" d="M120.5 99.9l-8.8 16.2c-22-.2-43.3-5.2-63.7-13.5-10.1-10.5-20.1-25.2-28.8-36.9 0 0 .5-.8 1.3-1.8l.2-.2c1.4-1.8 3.5-4 5.3-4 9 7.7 22 18.4 32.6 31.5 10.3 1 20.6 2.4 29.8 2.4 5.5-.1 12.3-2.3 17.8-1.8 5.5.3 10.2 4.4 14.3 8.1z"/>
  <path class="st4" d="M102.9 109.1c0 .1-1.6.1-4.4-.1-2.8-.2-6.8-.6-11.5-1.3-2.4-.3-4.9-.7-7.6-1.2s-5.5-1-8.5-1.6c-2.9-.6-5.9-1.3-9-2.1-3.1-.8-6.1-1.7-9.1-2.7-1.5-.6-3.1-1.2-4.2-2.3-1.2-1.1-2.2-2.3-3.3-3.4-2.1-2.3-4.1-4.7-6.1-6.9-4-4.5-7.5-8.8-10.4-12.6-1.5-1.9-2.8-3.6-4-5.2-1.2-1.6-2.2-2.9-3-4-.5-.6-.9-1.2-1.2-1.7l.2-.2c.4.5.8 1 1.4 1.6.9 1.1 2 2.4 3.2 3.9 1.2 1.5 2.6 3.2 4.1 5.1s3.1 3.9 4.8 6c1.7 2.2 3.5 4.4 5.3 6.8 1.9 2.4 3.8 4.7 5.9 7.1 1 1.2 2.1 2.3 3.3 3.4 1.1 1.1 2.7 1.6 4.1 2.1 3 1 6.1 1.7 9.2 2.4 3 .7 6.1 1.3 9 1.9 2.9.6 5.8 1.2 8.4 1.6 2.7.5 5.2.9 7.6 1.3 2.4.4 4.5.7 6.4 1 1.9.3 3.6.5 5 .7 2.8.3 4.4.4 4.4.4z"/>
  <path d="M99.2 103.9c-.4 1.7-3.5 3.4-5.1 4-4.4 1.5-10 1-12.1.7-12.7-1.7-16.7-3.6-29.1-6.8-1.3-.3-2.7-.7-3.8-1.5-1.1-.7-1.9-1.8-2.8-2.8-8.7-11.1-17.4-22.1-26.1-33.2-.6.8-1 1.4-1 1.4 8.7 11.7 18.7 26.4 28.9 36.8 18.5 7.6 37.9 12.4 57.8 13.3 1.3-2.9 2.1-6.1 2.5-9.3.7-4.4 2.5-13.7 2.3-18.2-7.5 2.8-10 9.6-11.5 15.6z" fill="#f49727" opacity=".3"/>
  <path class="st2" d="M158.5 181.6l-3.4-.3c-3-4.8-6.3-9.6-9.3-14.5v-.1c-3.9-6.4-7.2-12.9-8.8-20.1-.5-2.3.5-7.6 1.8-13 1.9-7.8 4.4-15.9 4.4-15.9s9.2 5.5 8.9 6.8c-.2.9-2.8 9.9-4.5 15.6 0 .2-.1.3-.1.4-.7 2.5-1.3 4.3-1.3 4.3 5.4 13.1 9.2 22.8 12.3 36.8z"/>
  <path class="st8" d="M148 140.4s-.2 0-.5.1c-.9.1-3 .2-4.7-.4-1.3-.4-2.4-.5-3.3-1.1-.6 2.3-1.5 5-.7 9 1.4 6.9 6.4 17.6 6.9 18.6-3.9-6.4-7.2-12.9-8.8-20.1-.5-2.3.5-7.6 1.8-13 1.9-1.2 3.4-2.1 3.4-2.1l-1.8 3.8 2.7.1 4.6 4.7.4.4z"/>
  <path class="st2" d="M156.7 176c.5 1.2 1.2 2.2 2 3.1.4.4 2.1 1.6 3.1 3.1.6.9 1.7 3 1.9 3.5.4.9 1.5 2.4.8 2.7-.9.4-2-1.3-2.7-2.3-.3-.4-.5-.7-.9-1-.4-.3-.8-.4-1.2-.2-.3.1-.5.4-.6.7-1 1.6-1.4 3.5-1.5 5.4-.1 1.9.1 3.8.2 5.7 0 .3.2.6 0 1.2-.1.3-.4.9-.7.8-.2-.1-.9-2.6-.9-2.8-.3-1.3-.2-1.2-.5-2.5 0-.2-.1-.4-.3-.6-.1-.1-.3-.1-.5-.2-.3-.1-.5-.4-.6-.7-.2-.5-.4-1-.6-1.6-.2-.7-.8-.5-1-1.2-.2-.8.1-2.7 0-3.6-.1-.7-.2-1.4-.2-2.1 0-.8.2-1.6.4-2.4.5-2.2.7-4.5.6-6.7"/>
  <path class="st9" d="M155.2 125.1s17.6-12.9 16.7-26.6c-.7-11.6-34.3-41.4-52.7-46.2l.5-1.6s11.2 3.7 22.4 12 21.6 19.1 25.8 24.5 6.7 9.2 5.4 17.2c-1.3 7.8-10.4 18.3-17.4 22.3"/>
  <path class="st2" d="M225.6 63.8s-6.9 3.3-14.2 6.7c-7.6 3.6-15.5 7.4-16.4 7.9-.9.5-4.9 4.2-8.6 7.5-3.4 3.1-6.4 6-6.4 6l-3.7-10.7s12.3-9 13.8-9.7c9.9-4.3 31.3-10.6 31.3-10.6l4.2 2.9z"/>
  <path class="st2" d="M222.7 64c.9 1.1 3.5 1.1 5.7.6 2.1-.5 7.1-1.8 7.7-2.2.4-.3-.3-.9-1.3-.7-3.5.3-3.9-.5-2.2-2 .6-.5 2.2-2 3.5-2.3 1-.3 3.5-.3 3.5-1.1-.1-.2-1.8-.3-3.2-.3-.6 0-1.4.1-2.1.3-.7.2-1.5.2-2.2.1-1.6-.2-4.8 0-5.5.3-3 1.7-4.6 3.9-7.6 5.6"/>
  <path class="st8" d="M211.4 70.6c-7.6 3.6-15.5 7.4-16.4 7.9-.9.5-4.9 4.2-8.6 7.5l-.3-1.3s4.3-5 8.3-7.3c3.9-2.3 17-6.8 17-6.8z"/>
  <path d="M183.6 79.5c-1.9-1.4-4-2.1-6.1-1.3-2.7 2.2-5.9 4.7-9.3 6.3l.9-2.5c-5.6 1.3-12 4.4-17.6 5-7.1.7-28.6-10.8-36.8-12-.3 1.8-.7 3.4-1.3 5-.3.7-.6 1.5-.9 2.2-2.9 6.6-7.6 11.5-9.2 15-1.3 2.8-2.6 8.7-2.5 14.4 0 1.5.2 3 .4 4.5 0 .1 0 .2.1.3 0 0 0 .1.1.3v.3c.2.9.5 2.7.3 4.6 5.8.4 18.1-4.2 23-3.1.4.1.9.2 1.3.3.6.2 1.3.3 1.9.5 1.2.4 2.4.8 3.5 1.1h.1c.4.1.8.2 1.2.4.5.1.9.3 1.4.4.8.2 1.7.4 2.6.5 1.1.2 2.3.3 3.5.4-.8 4.4-2 8.9-4.1 10.5-1.2 4.1 9.2 8.6 12.1 8.6 5-7.3 11.1-20.6 12.1-22.5 2.3-4.3 3.5-8.2 14.3-20.1.5-.4 1.1-.9 1.6-1.3 4.3-3.6 7.8-6.9 12-11.3-.8-2.7-2.5-5-4.6-6.5zM165 102.4c.6-3.6.7-7.4 1.2-11l6 8-7.2 3z" fill="#40ebf4"/>
  <path class="st11" d="M188.1 85.7c-4.2 4.4-7.7 7.7-12 11.3.1-.4.7-5.6 3.7-6.8 3.1-1.3 4.5-2.5 5.7-4.7 1.2-2.2-1.9-6.2-1.9-6.2 2.1 1.7 3.8 4 4.5 6.4zM130.7 117.9c-.6 0-1.1-.1-1.6-.2-8.7-7.1-9.9-21.3-10.7-26.7-.9-5.9-4-9.8-5.1-11.1-.3.7-.6 1.5-.9 2.2 1.2 1.5 2.9 3.9 3.5 6.2.8 3 1.8 11.4 3.6 17.9 1.4 4.9 4.2 8.5 6.1 10.5-1.9-.7-3.7-1.5-5.8-1.8-5.2-.8-11-.1-14.6-1-1.5-.4-3.1-.8-4.1-1.9-.2-.2-.3-.4-.4-.5 0 1.5.2 3 .4 4.5 0 .1 0 .2.1.3 0 0 0 .1.1.3v.3c.2.9.5 2.7.3 4.6 5.8.4 18.1-4.2 23-3.1.4.1.9.2 1.3.3.6.2 1.3.3 1.9.5 1.2.4 2.4.8 3.5 1.1h.1c.4.1.8.2 1.2.4.5.1.9.3 1.4.4.4.1 4 1.4 5.9 2 .4-2.1.7-4.2 1-6-2.7.7-6.3.9-10.2.8z"/>
  <path class="st9" d="M139.9 123.6c-.2.8-.3 1.5-.5 2.3-1.7-.6-3.5-1.6-6.3-3.5-6.3-4.4-8.3-12.3-9.9-18.2-1.6-5.9-3.4-19.5-4.9-27.6-1.5-8.1-11.4-12.7-11.4-12.7l.7-1.3s8 3.8 11.4 10.4c3.4 6.6 4.5 34.7 11 42.9 3.2 4.3 6.9 6.5 9.9 7.7z"/>
  <path class="st12" d="M176 85.6s-5 1.5-6.5 2.9"/>
  <path class="st13" d="M169.9 70.3s.3 0 .7.2c.2.1.5.2.8.3.3.1.6.3.9.5.7.4 1.3 1.1 1.9 1.9.1.2.3.4.4.6.1.2.3.4.4.6.3.4.5.9.8 1.4.1.2.2.5.3.7.1.2.2.5.2.7l.3 1.5c.1 1 .1 1.9-.1 2.7-.1.8-.3 1.4-.4 1.8-.1.4-.2.7-.2.7v-.7c0-.5.1-1.1.2-1.9.1-.8.1-1.6 0-2.6-.1-.5-.1-.9-.2-1.4-.1-.5-.2-1-.4-1.5-.1-.5-.4-1-.6-1.4l-.9-1.2c-.3-.3-.7-.6-1-.9-.3-.3-.7-.5-1-.8-1.1-.7-2.1-1.2-2.1-1.2z"/>
  <path class="st13" d="M174.5 90.3s4.4-7.3 0-14-10.9-6-10.9-6l-1.4 7.7 12.3 12.3z"/>
  <path class="st2" d="M177.5 99.9c-1.4 1.4-4.7 1.6-6.9 1.7-.5.5-1 1.2-1.5 1.8-1.1 1.3-2.3 2.6-3 2.9-1.1.5-2.6.5-4.4-.4-3-1.6-2.6-4.5-2.6-4.5.1-.1.8-1.1 1.6-2.3l-.2-.1c-2.5-.6-4.7-2.5-5.6-4.9-.4-1-.6-2.1-.7-3.2-.2-2.1-.1-4.2.7-6.1 1.3-3.1 4.4-5.1 7.4-6.7 1.5-.7 3-1.4 4.6-1.7 1-.2 2.1-.1 3.1.2 1.1.3 1.5.7 2 1.7l3.3 6.9c.9 2.2 4 12.9 2.2 14.7z"/>
  <path class="st1" d="M158.9 96.8s-2.6-5.6 0-8.5 9.5-3.6 14.4-8.3c4.8-4.7 3.4-9.6-1-13.7-2.5-2.4-9.1-4.5-16.4-13.1-7.9-9.4-18.7-11.7-29.4-4.4-2.3 1.6-4.8 6.6-11.5 11.4-2.3 1.6-3.5 2.7.8 2 3.4-.5 15.7-.4 22.4 12.6 5.3 10.3 7.8 22.5 19.5 23.3"/>
  <path class="st1" d="M118.2 62.6s.8-.1 2.2 0c.7 0 1.5.2 2.5.4.9.2 2 .6 3.1 1.1 1.1.5 2.2 1.1 3.3 2 1.1.8 2.1 1.8 3.1 3 .9 1.1 1.8 2.4 2.6 3.7.8 1.3 1.5 2.7 2.3 4.1.8 1.3 1.5 2.7 2.3 4 .8 1.3 1.5 2.6 2.3 3.8.8 1.2 1.5 2.4 2.3 3.4.8 1.1 1.6 2 2.3 2.9l1.2 1.2c.4.4.8.7 1.1 1 .4.3.7.6 1 .8.3.2.6.5.9.7.5.4 1 .7 1.3.9.3.2.5.3.5.3v.1s-.2-.1-.5-.2c-.3-.2-.8-.4-1.4-.7-.3-.2-.6-.4-1-.6-.3-.2-.7-.5-1.1-.7-.8-.5-1.6-1.3-2.5-2.1-.8-.8-1.7-1.8-2.5-2.9-.8-1.1-1.6-2.3-2.3-3.6-.7-1.3-1.5-2.6-2.1-4-.7-1.4-1.3-2.8-2-4.2-.7-1.4-1.3-2.8-2.2-4.1-.8-1.3-1.8-2.4-2.8-3.5-1-1-2.1-1.9-3.1-2.7-1-.8-2.1-1.4-3.1-1.9s-2-.9-2.9-1.2c-.9-.3-1.7-.5-2.3-.6-1.7-.3-2.5-.3-2.5-.4zM21.5 54.1S21.2 56 18 56s-3.8.2-4.2 1.1-1.7.1-3.2-1.5S.5 45.3 0 43.4s3.3-3.3 7.1-1.8 7.2 4.1 10.2 4.8 5.7 4.5 4.2 7.7zM61.6 1.5s-.8 12.1.6 19.9c0 0 .2 1.9 2 .8 2-1.4 5.1-.3 5.5 1.7.2 1.3 0 1.8 1.4 1s3-2.5 3.3-3.7-.1-3.6-1.6-5.9-3.2-6.5-4.3-9.3-6.7-8.8-6.9-4.5z"/>
  <path class="st8" d="M170.6 101.6c-.5.5-1 1.2-1.5 1.8-3-.9-4.2-2.2-4.2-2.2 1.7.4 5.7.4 5.7.4z"/>
  <path class="st9" d="M106.8 63.9s9.9-2.6 14.3-12.8c0 0-3.5-9.6-10.3-10.1-6.8-.4-26 13.3-4 22.9z"/>
  <path class="st14" d="M109.7 41.1c-.8.3-2 .8-3.2 1.5-1.3.7-2.8 1.8-4.1 3.2-.6.7-1.3 1.5-1.8 2.3-.5.8-1 1.8-1.2 2.8-.2 1-.1 2.1.3 3.1s.9 1.8 1.6 2.5c.7.7 1.4 1.3 2.1 1.8.7.5 1.5.9 2.2 1.1 1.3.6 2.4 1.3 3.2 1.7.8.5 1.2.8 1.2.8s-.4-.3-1.1-.9c-.7-.5-1.7-1.3-3.1-2-.7-.3-1.4-.7-2.1-1.1-.7-.5-1.4-1.1-2-1.7-.6-.7-1.2-1.5-1.6-2.3-.5-.9-.6-1.9-.5-2.9.1-1 .5-1.9 1.1-2.8.5-.8 1.2-1.6 1.9-2.2 1.4-1.3 2.8-2.3 4.1-3 1.3-.8 2.4-1.4 3.2-1.7.2-.1.3-.2.4-.2h-.6z"/>
  <path class="st14" d="M108.5 63.1s1-1.1-.4-3.8-1.6-7.7.8-10.5c2.3-2.7 10.5-2.5 12.3 2.3 0 0 .5.7-.2 2.2-.6 1.3-7.3 9.8-12.5 9.8z"/>
  <path d="M108.5 48.5s.1.7.7.7c.6.1 1.7-.7 2-1.1.3-.4-.2-1.2-.8-1-.6.1-2 .8-1.9 1.4z" fill="#bb6cc1"/>
  <path class="st2" d="M152.7 182.4s-.8 2.7-.7 5.1 1 8.8 1 8.8.1.1.3.1.6-.7.6-1.4v-5.4"/>
  <path class="st2" d="M154 182.4s-.7 3.5-.7 6 1 8.8 1 8.8.1.1.3.1c.1 0 .6-.7.6-1.4v-5.4"/>
  <path class="st2" d="M155.2 184.1s-.7 3.5-.7 6 .3 6.3.8 8.6c0 .2.4.3.5.3.1 0 .6-.7.6-1.4v-5.4M152 176.4s1.1 3 .7 6c-.4 3 2.8-1.7 2.8-1.7l-2-3.3-1.5-1z"/>
  <path class="st1" d="M172.6 88.3c.2.3.6.3.9.1.3-.2.3-.6.1-.9-.2-.3-.6-.3-.9-.1-.3.2-.3.6-.1.9z"/>
  <path class="st16" d="M173.1 87.8c.1.1.2.1.3 0 .1-.1.1-.2 0-.3-.1-.1-.2-.1-.3 0-.1.1-.1.2 0 .3z"/>
  <path class="st1" d="M166.5 91.9c.2.3.6.3.9.1.3-.2.3-.6.1-.9-.2-.3-.6-.3-.9-.1-.3.2-.4.6-.1.9z"/>
  <path class="st16" d="M166.9 91.4c.1.1.2.1.3 0 .1-.1.1-.2 0-.3-.1-.1-.2-.1-.3 0-.1 0-.1.2 0 .3z"/>
  <path class="st1" d="M173.6 85.7s-.2-.1-.6-.2h-.6c-.2 0-.5.1-.7.3-.2.1-.4.3-.5.5l-.3.6c-.1.2-.1.3-.1.4v.2l.1-.1c.1-.1.1-.2.2-.3.1-.1.2-.3.3-.4.1-.1.3-.3.5-.4.7-.7 1.7-.6 1.7-.6zM167.3 89.2s-.2-.1-.6-.2h-.6c-.2 0-.5.1-.7.3-.2.1-.4.3-.5.5l-.3.6c-.1.2-.1.3-.1.4v.2l.1-.1c.1-.1.1-.2.2-.3.1-.1.2-.3.3-.4.1-.1.3-.3.5-.4.8-.7 1.7-.6 1.7-.6z"/>
  <path d="M170.7 88.5v.3c0 .2.1.5.2.8.1.2.2.3.3.5.1.2.2.4.4.5.3.3.6.7.9 1 .3.3.7.6.9.9.1.1.3.3.3.4.1.1.1.2 0 .3-.1.3-.2.5-.4.7-.1.2-.2.2-.2.2l.2-.2c.1-.1.4-.3.5-.6.1-.2.1-.4 0-.5-.1-.2-.2-.4-.3-.5-.3-.3-.6-.6-.9-1-.3-.3-.7-.6-.9-.9-.3-.3-.5-.6-.7-.9-.1-.6-.2-1-.3-1 .1 0 .1 0 0 0 .1 0 0 0 0 0z" fill="#dbb491"/>
  <path class="st12" d="M169.6 91.2c0 1.6-1.3 3-3 3-1.6 0-3-1.3-3-3 0-1.6 1.3-3 3-3 1.6 0 3 1.4 3 3zM176.3 87c0 1.6-1.3 3-3 3-1.6 0-3-1.3-3-3 0-1.6 1.3-3 3-3s3 1.3 3 3zM169.1 89.6s.3-1.1 1.6-1.1M164.1 92.9s-5 1.5-6.5 2.9"/>
  <g>
    <path class="st2" d="M160.9 95.7c-.8-.9-2.4-.8-3.2.1-.8.9-.9 2.3-.2 3.3.4.6.9 1 1.5 1.3 1.9 1.1 4.6 1.4 4.9-.6"/>
  </g>
  <path class="st8" d="M158.2 97.7s.8-1.2 2.3-.2c1.6.9 1.1 2 .7 2.3-.3.2-1.8.1-1.6-.8s.9-.4 1.1-.7-.4-.8-.8-.8c-.4-.1-.9-.1-1.4.3-.3.2-.4 0-.3-.1z"/>
  <g>
    <path d="M176.2 96.7v.2c-.3.9-.9 1.7-2 1.8-1 .1-2.7-.5-2.7-1 0-.1 0-.2.1-.3.6-.7 4-2.2 4.2-2.2.5 0 .6.8.4 1.5z" fill="#d15924"/>
    <path d="M176.2 96.7v.2c-.3.9-.9 1.7-2 1.8-1 .1-2.7-.5-2.7-1 .9-.6 3-1.7 4.7-1z" fill="#ef703f"/>
  </g>
</svg>
