<svg version="1.1" id="OBJECTS" xmlns="http://www.w3.org/2000/svg" x="0" y="0" viewBox="0 0 279.3 278.3" xml:space="preserve">
  <style>
    .st0{fill:#ffe1bd}.st1{fill:#182645}.st3{fill:#fff}.st5{fill:#f7c289}.st6{fill:#a3cddf}.st7{fill:#121e33}
  </style>
  <g id="XMLID_791_">
    <g id="XMLID_758_">
      <g id="XMLID_756_">
        <g id="XMLID_325_">
          <path id="XMLID_134_" class="st0" d="M4.6 42.6C.7 38.5 0 33.7 0 33.7s3.9-2.3 8.3-2.6c4.4-.3 4.6-2.9 4.6-2.9s1.2-.5 1.7.8c.6 1.3.8 4.5.3 6.6-.6 2.5-1.6 4.8-1.6 4.8"/>
        </g>
        <g id="XMLID_449_">
          <path id="XMLID_133_" class="st0" d="M4.4 41.7s4.2 24 14.7 42.8c1.6 2.8 5.1 3.9 8 2.4 5-2.6 13-6.9 19.8-11.2 0 0-4.7-12.5-6.3-18.7 0 0-9.9 7.3-13.1 11.3L13.2 39.5l-8.8 2.2z"/>
        </g>
        <g id="XMLID_470_">
          <path id="XMLID_132_" class="st1" d="M12.4 36l-7 1c-.9.2-1.7-.4-1.8-1.3l-.8-20c0-.9.7-1.6 1.6-1.4l6.8.6c.7.1 1.1.6 1.2 1.3l1 18.3c.1.7-.4 1.3-1 1.5z"/>
        </g>
        <g id="XMLID_496_">
          <path id="XMLID_131_" d="M11.6 34l-5.6.8c-.8.2-1.5-.3-1.6-1.1L3.6 17c0-.7.7-1.3 1.4-1.2l5.5.4c.6.1 1 .6 1 1.1l.8 15.6c.2.5-.2 1-.7 1.1z" fill="#42648e"/>
        </g>
        <g id="XMLID_457_">
          <path id="XMLID_130_" class="st0" d="M1.3 26.5c1.3 1.6 6.7-1.9 6.3-3.7-.3-1.7-8.2 1.3-6.3 3.7z"/>
        </g>
        <g id="XMLID_456_">
          <path id="XMLID_129_" class="st0" d="M.5 28.1c0 2.8 8.1 2.1 8.7.2.6-1.9-8.7-3.6-8.7-.2z"/>
        </g>
        <g id="XMLID_458_">
          <path id="XMLID_128_" class="st0" d="M0 30.8c.3 2.2 7.3 2 7.9.2.6-1.8-8.3-3.5-7.9-.2z"/>
        </g>
        <g id="XMLID_460_">
          <path id="XMLID_127_" class="st0" d="M.1 33.7c.3 2 6 1.8 6.6.1.5-1.7-7-3.1-6.6-.1z"/>
        </g>
        <g id="XMLID_691_">
          <g id="XMLID_44_">
            <path id="XMLID_126_" class="st3" d="M6.8 15.4c.8 0 1.5.1 2.3.1.1 0 .1-.2 0-.2-.8 0-1.5-.1-2.3-.1-.1 0-.1.2 0 .2z"/>
          </g>
        </g>
        <g id="XMLID_693_">
          <g id="XMLID_43_">
            <path id="XMLID_125_" class="st3" d="M6.3 15.3c.1 0 .1-.2 0-.2-.2.1-.1.3 0 .2z"/>
          </g>
        </g>
        <g id="XMLID_704_">
          <path id="XMLID_122_" class="st3" d="M9 35.9c-.1 0-.2 0-.3-.1-.1-.1-.2-.2-.2-.3 0-.1 0-.3.1-.4.1-.1.2-.2.3-.2.1 0 .3 0 .4.1.2.1.3.5.2.7-.3.1-.4.2-.5.2zm-.2-.9c-.1 0-.2.1-.3.2-.1.2 0 .4.1.5.2.1.4 0 .5-.1.1-.2 0-.4-.1-.5 0-.1-.1-.1-.2-.1z"/>
        </g>
      </g>
      <g id="XMLID_755_">
        <g id="XMLID_450_">
          <path id="XMLID_117_" class="st0" d="M127.2 49.7s9.1-2 10.6-2.4l9.8 36.4 11.4-1.9s-3.9-26.9-9.7-44.3c-.9-2.6-3.2-4.5-6-4.7-5-.4-13.4-.9-20-.5 0 0-.3 4.1.8 9.3 1.2 5.1 3.1 8.1 3.1 8.1z"/>
        </g>
        <g id="XMLID_481_">
          <path id="XMLID_116_" class="st0" d="M147.7 83.6s2.8 10.7 12.4 9c9.1-1.6 10.5-6.3 10-8.3-.5-2-10.3 2.2-11-2.6"/>
        </g>
        <g id="XMLID_484_">
          <path id="XMLID_115_" class="st0" d="M160.4 85.1s-.2-3 2.1-3.4c2.3-.3 1.2 3.2 1.2 3.2"/>
        </g>
        <g id="XMLID_483_">
          <path id="XMLID_114_" class="st0" d="M163.7 84.7s-.2-3 2-3.3c2.3-.3 1.2 3.2 1.2 3.2"/>
        </g>
        <g id="XMLID_485_">
          <path id="XMLID_113_" class="st0" d="M166.9 84.4s-.2-3 2-3.3c2.2-.3 1.2 3.2 1.2 3.2"/>
        </g>
        <g id="XMLID_282_">
          <path id="XMLID_110_" class="st0" d="M170 86.5s.8-1.3.4-4.1c-.3-1.7-1.8.4-1.9 1.7-.1 1.3.9 3.5 1.5 2.4z"/>
        </g>
        <g id="XMLID_301_">
          <path id="XMLID_109_" class="st0" d="M164.1 82.3c-.3-.7-.9-1.1-1.7-1.1-1.9.1-2.4 2.1-2.5 3.6 0 .5.8.5.8 0 .1-1 .2-2.5 1.5-2.8 1.7-.3 1.2 2 1.1 2.8 0 .5.8.5.8 0 .1-.8.4-1.7 0-2.5z"/>
        </g>
        <g id="XMLID_307_">
          <path id="XMLID_108_" class="st0" d="M165.6 81c-2.1.2-1.8 2.7-2.3 4.1-.2.5.6.7.8.2.3-1 .1-2.5 1-3.2.9-.8 1.5.2 1.7.9.2.6.1 1.3 0 2-.1.5.7.5.8 0 .2-1.3.1-4.2-2-4z"/>
        </g>
        <g id="XMLID_316_">
          <path id="XMLID_107_" class="st0" d="M168.2 80.9c-1.4.7-1.6 2.7-1.6 4.1 0 .5.7.5.8 0 0-.4 0-.9.1-1.3l.2-.7c.1-.7.4-1 1.1-.8 1.1-.1 1 .1 1.2 1.1.1.7 0 1.4-.1 2.1-.6 2.2-2.4 3.6-4.6 3.9-.5.1-.3.8.2.7 3.6-.8 5.8-3.8 5.2-7.6-.4-1-1.3-2.1-2.5-1.5z"/>
        </g>
        <g id="XMLID_712_">
          <g id="XMLID_38_">
            <path id="XMLID_106_" class="st5" d="M158.4 79c.4 3.5 1.9 7.4 5.9 7.6.3 0 .4-.5.1-.5-3.8-.2-5.2-4-5.5-7.2-.1-.3-.6-.2-.5.1z"/>
          </g>
        </g>
        <g id="XMLID_709_">
          <g id="XMLID_37_">
            <path id="XMLID_105_" class="st5" d="M163.8 82.2c-.1 1.2-.7 2.5-1.1 3.6-.1.3.3.5.5.2.5-1.2 1-2.5 1.1-3.8 0-.3-.5-.4-.5 0z"/>
          </g>
        </g>
        <g id="XMLID_711_">
          <g id="XMLID_36_">
            <path id="XMLID_104_" class="st5" d="M167 82c0 .9-.2 1.7-.5 2.5-.1.3.4.5.5.2.3-.8.5-1.7.5-2.6 0-.4-.5-.4-.5-.1z"/>
          </g>
        </g>
      </g>
      <g id="XMLID_754_">
        <g id="XMLID_671_">
          <g id="XMLID_242_">
            <path id="XMLID_102_" class="st6" d="M215.4 229.5l19.2 12.9-24.1 35.8-2.3-1.5c-4.6-3.1-5.9-9.4-2.8-14.1 3.1-4.6 1.9-10.9-2.8-14.1l-.1-.1 12.9-18.9z"/>
          </g>
          <g id="XMLID_658_">
            <g id="XMLID_34_">
              <path id="XMLID_101_" class="st3" d="M208.5 276.7c8.3-12.1 16.6-24.3 24.9-36.4.4-.6-.5-1.3-1-.7-8.3 12.1-16.6 24.3-24.9 36.4-.4.6.6 1.3 1 .7z"/>
            </g>
          </g>
          <g id="XMLID_664_">
            <g id="XMLID_33_">
              <path id="XMLID_100_" class="st3" d="M225.5 236c-3.3 3.8-3.3 9 0 12.8.5.6 1.4-.2.9-.7-2.9-3.4-2.9-8 .1-11.4.4-.5-.5-1.2-1-.7z"/>
            </g>
          </g>
          <g id="XMLID_667_">
            <g id="XMLID_32_">
              <path id="XMLID_99_" class="st3" d="M205.9 262.4c2.5 1.8 5 3.6 7.6 5.4.6.4 1.3-.5.7-1-2.5-1.8-5-3.6-7.6-5.4-.7-.3-1.4.6-.7 1z"/>
            </g>
          </g>
          <g id="XMLID_669_">
            <g id="XMLID_31_">
              <path id="XMLID_98_" class="st3" d="M207.5 256.2c1.2-.6 2.3-1.2 3.5-1.8.7-.3.2-1.4-.5-1.1-1.2.6-2.3 1.2-3.5 1.8-.6.4-.1 1.5.5 1.1z"/>
            </g>
          </g>
          <g id="XMLID_670_">
            <g id="XMLID_30_">
              <path id="XMLID_97_" class="st3" d="M206.7 253.2c1.3-.9 2.6-1.7 3.9-2.6.6-.4-.1-1.3-.7-.9-1.3.9-2.6 1.7-3.9 2.6-.7.4 0 1.3.7.9z"/>
            </g>
          </g>
        </g>
        <g id="XMLID_454_">
          <path id="XMLID_96_" class="st1" d="M70.1 101.9s35.4 98.7 128.5 161.7c0 0 13.3-22.4 29.1-38.1 0 0-75.4-55.1-117.7-144.6 0 .1-25.4 14.3-39.9 21z"/>
        </g>
        <g id="XMLID_388_">
          <g id="XMLID_29_">
            <path id="XMLID_95_" class="st7" d="M189.6 257.7c8.6-13.2 18.2-25.6 28.8-37.2.5-.6-.4-1.2-1-.7-10.6 11.6-20.3 24-28.8 37.2-.4.6.6 1.3 1 .7z"/>
          </g>
        </g>
        <g id="XMLID_557_">
          <g id="XMLID_28_">
            <path id="XMLID_94_" class="st7" d="M130.2 160.5c21.7 27.5 44.6 55.9 72.7 77.2.6.5 1.3-.5.7-1-28-21.2-50.8-49.6-72.4-77-.6-.5-1.5.2-1 .8z"/>
          </g>
        </g>
        <g id="XMLID_177_" opacity=".47">
          <g id="XMLID_182_">
            <path id="XMLID_93_" class="st7" d="M138.1 166.1c-4.5-4-8.9-8.5-13.1-13.2l-1.2-.1s30.5 41.8 66.7 40c-6.2-6.2-12.8-13.2-19.7-20.9-.8.3-1.6.5-2.4.8-10.5 3.2-22 .7-30.3-6.6z"/>
          </g>
        </g>
      </g>
      <g id="XMLID_528_">
        <g id="XMLID_672_">
          <g id="XMLID_678_">
            <path id="XMLID_92_" class="st6" d="M238.9 98.5l20.5-10.7 19.9 38.3-2.4 1.3c-5 2.6-11.1.6-13.7-4.3-2.6-5-8.7-6.9-13.7-4.3l-.1.1-10.5-20.4z"/>
          </g>
          <g id="XMLID_677_">
            <g id="XMLID_27_">
              <path id="XMLID_91_" class="st3" d="M277 127.2c-6.7-13.1-13.3-26.2-20-39.3-.3-.7-1.4-.2-1.1.5 6.7 13.1 13.3 26.2 20 39.3.4.7 1.4.2 1.1-.5z"/>
            </g>
          </g>
          <g id="XMLID_676_">
            <g id="XMLID_26_">
              <path id="XMLID_90_" class="st3" d="M249.4 92.8c1.7 4.7 6.4 7.3 11.2 6.2.7-.2.6-1.3-.2-1.2-4.4 1-8.5-1.3-10-5.5-.2-.7-1.2-.2-1 .5z"/>
            </g>
          </g>
          <g id="XMLID_675_">
            <g id="XMLID_25_">
              <path id="XMLID_89_" class="st3" d="M263.2 122.7c2.8-1.4 5.5-2.7 8.3-4.1.7-.3.2-1.4-.5-1.1-2.8 1.4-5.5 2.7-8.3 4.1-.7.3-.2 1.4.5 1.1z"/>
            </g>
          </g>
          <g id="XMLID_674_">
            <g id="XMLID_24_">
              <path id="XMLID_88_" class="st3" d="M258.5 118.3c0-1.3.1-2.6.1-3.9 0-.8-1.2-.9-1.2-.1 0 1.3-.1 2.6-.1 3.9.1.7 1.2.8 1.2.1z"/>
            </g>
          </g>
          <g id="XMLID_673_">
            <g id="XMLID_23_">
              <path id="XMLID_87_" class="st3" d="M255.4 117.5c-.1-1.6-.3-3.1-.4-4.7-.1-.8-1.2-.6-1.2.2.1 1.6.3 3.1.4 4.7.1.8 1.3.6 1.2-.2z"/>
            </g>
          </g>
        </g>
        <g id="XMLID_318_">
          <path id="XMLID_86_" class="st1" d="M85.2 96.5s25 44.7 52.9 69.5c8.2 7.3 19.7 9.8 30.3 6.6 24.7-7.5 49.7-21.7 90.7-44.2 0 0-11.2-23.2-18.2-43.9 0 0-31.3 19.6-79.1 42.1 0 0-15.8-29.1-31.2-55.3.1.1-26.1 16.2-45.4 25.2z"/>
        </g>
        <g id="XMLID_380_">
          <g id="XMLID_22_">
            <path id="XMLID_85_" class="st7" d="M229.4 91.1c5.5 14.4 11.9 28.4 19.1 42 .4.7 1.4.2 1.1-.5-7.3-13.6-13.6-27.6-19.1-42-.3-.7-1.4-.2-1.1.5z"/>
          </g>
        </g>
        <g id="XMLID_406_">
          <g id="XMLID_21_">
            <path id="XMLID_84_" class="st7" d="M105.7 126.5c7.3 12.4 14.9 25.6 26 35.1 7.1 6.1 13.4 11.7 23.1 12.7 9.1.9 18.2-1.7 26.6-5 .7-.3.2-1.4-.5-1.1-8.6 3.3-18 6-27.3 4.7-9.2-1.3-15.6-7.3-22.2-13.2-10.4-9.2-17.7-21.9-24.6-33.8-.4-.5-1.5-.1-1.1.6z"/>
          </g>
        </g>
        <g id="XMLID_576_">
          <g id="XMLID_20_">
            <path id="XMLID_83_" class="st7" d="M127.4 85.9c2.5 4.1 5.1 9.5 8.6 12.7 3.2 2.9 6.7 1.5 10.1-.3.7-.4.2-1.4-.5-1.1-2.2 1.2-4.5 2.3-7 1.5-2.1-.7-3.2-2.5-4.3-4.3-2.1-3.1-4-6.2-6-9.3-.4-.6-1.3.2-.9.8z"/>
          </g>
        </g>
      </g>
      <g id="XMLID_321_">
        <path id="XMLID_82_" d="M40.6 57c4.9-3.7 34.1-25.7 83.8-24.8 0 0 2.2 10.3 4.5 17.2 0 0-3.1.6-9.6 2.3 0 0 6.3 10.4 13.5 23.4 0 0-26.8 28.8-59.2 35.8 0 0-9.1-19.4-15-41.4 0 0-2.7.8-11.7 6.2 0 0-3.4-7.4-6.3-18.7z" fill="#f7b626"/>
      </g>
      <g id="XMLID_416_">
        <g id="XMLID_19_">
          <path id="XMLID_81_" class="st3" d="M119.5 32.5c1.4 6.1 3.1 12.1 5.1 18.1.2.7 1.3.2 1.1-.5-1.9-5.9-3.7-11.7-5-17.8-.2-.7-1.3-.5-1.2.2z"/>
        </g>
      </g>
      <g id="XMLID_420_">
        <g id="XMLID_18_">
          <path id="XMLID_80_" class="st3" d="M43.4 55.1c1.7 6.2 3.9 12.3 6.5 18.2.3.7 1.4.2 1.1-.5-2.6-5.8-4.8-11.8-6.5-17.9-.2-.7-1.3-.5-1.1.2z"/>
        </g>
      </g>
      <g id="XMLID_424_">
        <g id="XMLID_17_">
          <path id="XMLID_79_" class="st3" d="M66.6 42.7c2.1 6.1 8.5 9.8 14.7 7.5 6.3-2.3 8.7-9.2 6.4-15.3-.3-.7-1.4-.2-1.1.5 5.1 13.1-14.5 20.1-19 6.8-.1-.7-1.2-.2-1 .5z"/>
        </g>
      </g>
      <g id="XMLID_561_">
        <g id="XMLID_16_">
          <path id="XMLID_78_" class="st7" d="M75.6 114.5c23.5-5.4 44.5-18.9 59.2-38 .5-.6-.5-1.3-1-.7-14.5 18.9-35.2 32.2-58.5 37.5-.6.2-.4 1.4.3 1.2z"/>
        </g>
      </g>
      <g id="XMLID_571_">
        <g id="XMLID_15_">
          <path id="XMLID_77_" class="st7" d="M92.3 112.6c1.5 4.3 3.8 8.3 6.9 11.6 2 2.1 4.3 3.8 7.2 2.6.7-.3.2-1.4-.5-1.1-5.8 2.3-11.2-9.6-12.6-13.6-.2-.7-1.2-.2-1 .5z"/>
        </g>
      </g>
      <g id="XMLID_757_">
        <g id="XMLID_592_">
          <path id="XMLID_76_" class="st1" d="M84.4 9.8C83.8 9 82.9 8.4 82 8c-4.2-1.7-10.1-.3-14.6-.1-4.1.2-8.9 1.1-11.8 4.4-2.2 2.5-2.7 6.4.6 8 3.6 1.8 8.3-1 11.4-2.9.7-.4 1.3-.9 2-1.3h.1c2.6.2 4.7 1.4 7.2 2.1 2.4.7 5.5.6 7.4-1.2.9 1.2 3.3 1 3.4-.9 0-2.8-1.3-5-3.3-6.3z"/>
        </g>
        <g id="XMLID_489_">
          <path id="XMLID_75_" class="st0" d="M65.8 15.2s-9 19 4.4 21.4v3.3c0 4.2 3.6 7.6 7.8 7.3 4-.2 7-3.6 6.9-7.5l-.2-8s4.5.3 4.8-3.6c.3-3.9-4.4-3.7-4.4-3.7l.2-8c0 .1-8.8-8.7-19.5-1.2z"/>
        </g>
        <g id="XMLID_529_">
          <path id="XMLID_74_" class="st1" d="M88.8 12.5c-.8-3-3-5.7-6.1-6.4-2.9-.6-5.7.6-8.5 1.1-3.7.6-7.4.6-11.1-.3-3.3-.8-8.4-3.3-11 .3-1.9 2.7 0 6.2 2.2 8.1 3.3 2.9 8.1 4.2 12.4 3.8 2.2-.2 4.1-1 6.1-1.6 3-.8 6-1.2 6.8 3.1.2.9-.1 1.8 0 2.7.3 1.4 1 2.9 2.3 3.5 1.6.7 3.3 0 3.9-1.6.8-2 2-4 2.6-6.1.8-2.1 1-4.4.4-6.6z"/>
        </g>
        <g id="XMLID_591_">
          <path id="XMLID_73_" class="st1" d="M87.9 10.4c-.3-1-.8-1.9-1.5-2.6-3.1-3.3-9.1-4.4-13.3-6C69.2.3 64.5-.9 60.5 1c-3 1.4-5 4.8-2.7 7.6 2.6 3.1 8 2.5 11.6 2 .8-.1 1.6-.3 2.4-.4h.1c2.3 1.3 3.8 3.2 5.7 4.9 1.9 1.6 4.8 2.7 7.3 1.9.4 1.5 2.7 2.2 3.5.6 1.1-2.7.8-5.2-.5-7.2z"/>
        </g>
        <g id="XMLID_611_">
          <g id="XMLID_14_">
            <path id="XMLID_72_" class="st1" d="M88.8 18.2c1.2-3.9 2-8.6.4-12.5-.6-1.3-2.6-.4-2.1.9 1.4 3.3.6 7.4-.4 10.7-.4 1.5 1.7 2.3 2.1.9z"/>
          </g>
        </g>
        <g id="XMLID_612_">
          <g id="XMLID_13_">
            <path id="XMLID_71_" class="st1" d="M85.6 18.2c.8-3.2 3.9-5.6 7.2-5.6 1.4 0 1.7-2.3.3-2.3-4.7 0-8.6 3.1-9.7 7.6-.4 1.5 1.8 1.7 2.2.3z"/>
          </g>
        </g>
        <g id="XMLID_622_">
          <g id="XMLID_12_">
            <path id="XMLID_70_" class="st3" d="M59.8 26.8c1.4 1.7 3.8 2.1 5.7 1.1 1.9-1.1 2.6-3.5 1.5-5.4-1.2-1.9-3.8-2.1-5.7-1.2-2.2 1.1-2.8 3.4-1.5 5.5.3.4.8-.1.6-.5-2.7-4.1 4.8-6.9 6.2-2.8 1.3 3.8-4.1 5.5-6.2 2.8-.3-.3-.9.1-.6.5z"/>
          </g>
        </g>
        <g id="XMLID_624_">
          <g id="XMLID_11_">
            <path id="XMLID_69_" class="st3" d="M70.2 27.1c1.4 1.7 3.8 2.1 5.7 1.1 1.9-1.1 2.6-3.5 1.5-5.4-1.2-1.9-3.8-2.1-5.7-1.2-2.2 1.1-2.9 3.4-1.5 5.5.3.4.8-.1.6-.5-2.7-4.1 4.8-6.9 6.2-2.8 1.3 3.8-4.1 5.5-6.2 2.8-.3-.3-.9.2-.6.5z"/>
          </g>
        </g>
        <g id="XMLID_631_">
          <g id="XMLID_10_">
            <path id="XMLID_68_" class="st5" d="M86.3 26.8c1.8.2.3 3.3-1.2 2.5-.3-.2-.6.2-.3.4 1 .6 2.2-.2 2.6-1.1.4-.9 0-2.1-1.1-2.2-.2-.1-.3.4 0 .4z"/>
          </g>
        </g>
        <g id="XMLID_632_">
          <g id="XMLID_9_">
            <path id="XMLID_67_" class="st5" d="M85 29.7c1.2.2 1.9-1.2 1.1-2-.2-.2-.6.1-.4.3.5.5.1 1.4-.6 1.2-.3-.1-.4.4-.1.5z"/>
          </g>
        </g>
        <g id="XMLID_626_">
          <g id="XMLID_8_">
            <path id="XMLID_66_" class="st5" d="M68.4 23.5c0 1.7-.5 3.2-1.5 4.5-.1.1 0 .4.2.4.7 0 1.3.1 1.9.3.3.1.5-.4.2-.4-.7-.2-1.4-.3-2.1-.3.1.1.1.2.2.4 1.1-1.4 1.6-3 1.6-4.7 0-.5-.5-.5-.5-.2z"/>
          </g>
        </g>
        <g id="XMLID_640_">
          <g id="XMLID_7_">
            <path id="XMLID_65_" class="st5" d="M68.3 30.5c1 .4 2.1-.1 2.5-1.2.1-.3-.4-.5-.5-.2-.3.8-1 1.2-1.8.9-.3-.1-.4.4-.2.5z"/>
          </g>
        </g>
        <g id="XMLID_647_">
          <g id="XMLID_6_">
            <path id="XMLID_64_" class="st1" d="M73.9 25.4c.7-.1.4-1.2-.2-.9-.7.3.1 1.4.6.8.5-.5-.2-1.3-.8-.8-.6.4.2 1.3.7.8.3-.3-.1-.7-.4-.4-.4 0-.3.6.1.5z"/>
          </g>
        </g>
        <g id="XMLID_648_">
          <g id="XMLID_5_">
            <path id="XMLID_63_" class="st1" d="M64.3 25c.7-.1.4-1.2-.2-.9-.7.3.1 1.4.6.8.5-.5-.2-1.3-.8-.8-.6.4.2 1.3.7.8.3-.3-.1-.7-.4-.4-.4 0-.3.6.1.5z"/>
          </g>
        </g>
        <g id="XMLID_650_">
          <g id="XMLID_4_">
            <path id="XMLID_62_" class="st3" d="M67.5 25c.7.1 1.4.1 2.1.2.5 0 .6-.7.1-.8-.7-.1-1.4-.1-2.1-.2-.5 0-.6.7-.1.8z"/>
          </g>
        </g>
        <g id="XMLID_652_">
          <g id="XMLID_3_">
            <path id="XMLID_61_" class="st3" d="M78 24.9c2.7-.1 5.5-.1 8.2 0 .5 0 .6-.7.1-.8-2.8-.1-5.6-.1-8.4 0-.5.1-.4.9.1.8z"/>
          </g>
        </g>
        <g id="XMLID_738_">
          <g id="XMLID_2_">
            <path id="XMLID_60_" class="st5" d="M69.8 36.8c2.3.4 4.6.2 6.8-.7.3-.1.1-.5-.2-.4-2.1.8-4.3 1-6.5.6-.3-.1-.4.4-.1.5z"/>
          </g>
        </g>
      </g>
      <g id="XMLID_746_">
        <g id="XMLID_741_">
          <path id="XMLID_57_" class="st3" d="M99.3 66c-.3 0-.5-.1-.6-.3l-4.5-11.2c-.1-.1-.1-.3 0-.4l.3-.3 11.2-4.3c.3-.1.6 0 .7.3l4.6 10.7c.1.2 0 .5-.2.7l-3.2 2.4c-1 .8-2.3 1.3-3.6 1.6l-4.7.8zm-3.9-11.5l4.1 10.2 4.3-.8c1.1-.2 2.2-.7 3.1-1.4l2.9-2.2-4.2-9.8-10.2 4z"/>
        </g>
        <g id="XMLID_745_">
          <g id="XMLID_1_">
            <path id="XMLID_56_" class="st3" d="M96.5 57.7c3.6-1.1 7-2.4 10.4-4.1.7-.3.2-1.4-.5-1.1-3.3 1.6-6.6 2.9-10.1 4-.7.2-.5 1.4.2 1.2z"/>
          </g>
        </g>
      </g>
    </g>
  </g>
</svg>
